<mxfile host="app.diagrams.net" agent="Mozilla/5.0 (Windows NT 10.0; Win64; x64) AppleWebKit/537.36 (KHTML, like Gecko) Chrome/134.0.0.0 Safari/537.36 OPR/119.0.0.0" version="27.0.9">
  <diagram name="Страница — 1" id="rLofayxcrdkPzI8rZ9sV">
    <mxGraphModel dx="10275" dy="2850" grid="1" gridSize="10" guides="1" tooltips="1" connect="1" arrows="1" fold="1" page="1" pageScale="1" pageWidth="827" pageHeight="1169" math="0" shadow="0">
      <root>
        <mxCell id="0" />
        <mxCell id="1" parent="0" />
        <mxCell id="IgIEpAihZ9Cb06VBUbrS-36" value="&lt;font style=&quot;font-size: 30px;&quot;&gt;&lt;b&gt;Components&lt;/b&gt;&lt;/font&gt;" style="text;html=1;align=center;verticalAlign=middle;whiteSpace=wrap;rounded=0;" parent="1" vertex="1">
          <mxGeometry x="99.92000000000007" y="40" width="62" height="30" as="geometry" />
        </mxCell>
        <mxCell id="IgIEpAihZ9Cb06VBUbrS-197" style="edgeStyle=orthogonalEdgeStyle;rounded=0;orthogonalLoop=1;jettySize=auto;html=1;exitX=0.5;exitY=1;exitDx=0;exitDy=0;exitPerimeter=0;entryX=0.738;entryY=0.002;entryDx=0;entryDy=0;entryPerimeter=0;" parent="1" source="IgIEpAihZ9Cb06VBUbrS-199" target="IgIEpAihZ9Cb06VBUbrS-255" edge="1">
          <mxGeometry relative="1" as="geometry">
            <Array as="points">
              <mxPoint x="1415.92" y="564" />
              <mxPoint x="1218.92" y="564" />
            </Array>
            <mxPoint x="1283.92" y="164" as="targetPoint" />
          </mxGeometry>
        </mxCell>
        <mxCell id="slTmogsQ5nZODz0ifdsU-34" value="JSON/HTTPS&lt;div&gt;Контент, статистика,&lt;/div&gt;&lt;div&gt;чаты с Пользователями&lt;/div&gt;" style="edgeLabel;html=1;align=center;verticalAlign=middle;resizable=0;points=[];" parent="IgIEpAihZ9Cb06VBUbrS-197" vertex="1" connectable="0">
          <mxGeometry x="-0.1305" y="-6" relative="1" as="geometry">
            <mxPoint x="-6" y="17" as="offset" />
          </mxGeometry>
        </mxCell>
        <object placeholders="1" c4Name="Админ-панель" c4Type="Container" c4Technology="JavaScript, OpenCart" c4Description="Графическая панель управления приложением" label="&lt;font style=&quot;font-size: 16px&quot;&gt;&lt;b&gt;%c4Name%&lt;/b&gt;&lt;/font&gt;&lt;div&gt;[%c4Type%:&amp;nbsp;%c4Technology%]&lt;/div&gt;&lt;br&gt;&lt;div&gt;&lt;font style=&quot;font-size: 11px&quot;&gt;&lt;font color=&quot;#E6E6E6&quot;&gt;%c4Description%&lt;/font&gt;&lt;/div&gt;" id="IgIEpAihZ9Cb06VBUbrS-199">
          <mxCell style="shape=mxgraph.c4.webBrowserContainer2;whiteSpace=wrap;html=1;boundedLbl=1;rounded=0;labelBackgroundColor=none;strokeColor=#118ACD;fillColor=#23A2D9;strokeColor=#118ACD;strokeColor2=#0E7DAD;fontSize=12;fontColor=#ffffff;align=center;metaEdit=1;points=[[0.5,0,0],[1,0.25,0],[1,0.5,0],[1,0.75,0],[0.5,1,0],[0,0.75,0],[0,0.5,0],[0,0.25,0]];resizable=0;" parent="1" vertex="1">
            <mxGeometry x="1295.92" y="374" width="240" height="160" as="geometry" />
          </mxCell>
        </object>
        <object placeholders="1" c4Name="Пользователь" c4Type="Person" c4Description="Исследователь или Испытуемый" label="&lt;font style=&quot;font-size: 16px&quot;&gt;&lt;b&gt;%c4Name%&lt;/b&gt;&lt;/font&gt;&lt;div&gt;[%c4Type%]&lt;/div&gt;&lt;br&gt;&lt;div&gt;&lt;font style=&quot;font-size: 11px&quot;&gt;&lt;font color=&quot;#cccccc&quot;&gt;%c4Description%&lt;/font&gt;&lt;/div&gt;" id="IgIEpAihZ9Cb06VBUbrS-201">
          <mxCell style="html=1;fontSize=11;dashed=0;whiteSpace=wrap;fillColor=#083F75;strokeColor=#4D4D4D;fontColor=#ffffff;shape=mxgraph.c4.person2;align=center;metaEdit=1;points=[[0.5,0,0],[1,0.5,0],[1,0.75,0],[0.75,1,0],[0.5,1,0],[0.25,1,0],[0,0.75,0],[0,0.5,0]];resizable=0;" parent="1" vertex="1">
            <mxGeometry x="827.9200000000001" y="77" width="200" height="180" as="geometry" />
          </mxCell>
        </object>
        <mxCell id="slTmogsQ5nZODz0ifdsU-5" style="edgeStyle=orthogonalEdgeStyle;rounded=0;orthogonalLoop=1;jettySize=auto;html=1;entryX=0.5;entryY=0;entryDx=0;entryDy=0;entryPerimeter=0;exitX=0.5;exitY=1;exitDx=0;exitDy=0;exitPerimeter=0;" parent="1" source="IgIEpAihZ9Cb06VBUbrS-202" target="IgIEpAihZ9Cb06VBUbrS-199" edge="1">
          <mxGeometry relative="1" as="geometry" />
        </mxCell>
        <mxCell id="slTmogsQ5nZODz0ifdsU-35" value="&lt;div&gt;Модерация контента,&lt;/div&gt;&lt;div&gt;управление доступом,&lt;/div&gt;&lt;div&gt;анализ статистики, помощь&lt;/div&gt;" style="edgeLabel;html=1;align=center;verticalAlign=middle;resizable=0;points=[];" parent="slTmogsQ5nZODz0ifdsU-5" vertex="1" connectable="0">
          <mxGeometry x="0.1633" y="6" relative="1" as="geometry">
            <mxPoint x="-6" y="-11" as="offset" />
          </mxGeometry>
        </mxCell>
        <object placeholders="1" c4Name="Администратор" c4Type="Person" c4Description="Работник сервиса" label="&lt;font style=&quot;font-size: 16px&quot;&gt;&lt;b&gt;%c4Name%&lt;/b&gt;&lt;/font&gt;&lt;div&gt;[%c4Type%]&lt;/div&gt;&lt;br&gt;&lt;div&gt;&lt;font style=&quot;font-size: 11px&quot;&gt;&lt;font color=&quot;#cccccc&quot;&gt;%c4Description%&lt;/font&gt;&lt;/div&gt;" id="IgIEpAihZ9Cb06VBUbrS-202">
          <mxCell style="html=1;fontSize=11;dashed=0;whiteSpace=wrap;fillColor=#083F75;strokeColor=#06315C;fontColor=#ffffff;shape=mxgraph.c4.person2;align=center;metaEdit=1;points=[[0.5,0,0],[1,0.5,0],[1,0.75,0],[0.75,1,0],[0.5,1,0],[0.25,1,0],[0,0.75,0],[0,0.5,0]];resizable=0;" parent="1" vertex="1">
            <mxGeometry x="1315.92" y="78" width="200" height="180" as="geometry" />
          </mxCell>
        </object>
        <mxCell id="IgIEpAihZ9Cb06VBUbrS-221" style="edgeStyle=orthogonalEdgeStyle;rounded=0;orthogonalLoop=1;jettySize=auto;html=1;entryX=0.5;entryY=0;entryDx=0;entryDy=0;entryPerimeter=0;exitX=0.5;exitY=1;exitDx=0;exitDy=0;exitPerimeter=0;" parent="1" source="IgIEpAihZ9Cb06VBUbrS-201" target="IgIEpAihZ9Cb06VBUbrS-235" edge="1">
          <mxGeometry relative="1" as="geometry">
            <mxPoint x="353.9200000000001" y="141" as="sourcePoint" />
            <mxPoint x="553.9200000000001" y="58" as="targetPoint" />
            <Array as="points">
              <mxPoint x="927.9200000000001" y="324" />
              <mxPoint x="927.9200000000001" y="324" />
            </Array>
          </mxGeometry>
        </mxCell>
        <mxCell id="slTmogsQ5nZODz0ifdsU-36" value="&lt;div&gt;Создание и прохождение тестов,&lt;/div&gt;&lt;div&gt;проведение консультаций&lt;/div&gt;" style="edgeLabel;html=1;align=center;verticalAlign=middle;resizable=0;points=[];" parent="IgIEpAihZ9Cb06VBUbrS-221" vertex="1" connectable="0">
          <mxGeometry x="-0.2367" y="-4" relative="1" as="geometry">
            <mxPoint x="5" y="6" as="offset" />
          </mxGeometry>
        </mxCell>
        <object placeholders="1" c4Name="Веб-интерфейс для пользователей" c4Type="Container" c4Technology="JavaScript" c4Description="Система средств, позволяющая Пользователю взаимодействовать с приложением" label="&lt;font style=&quot;font-size: 16px&quot;&gt;&lt;b&gt;%c4Name%&lt;/b&gt;&lt;/font&gt;&lt;div&gt;[%c4Type%:&amp;nbsp;%c4Technology%]&lt;/div&gt;&lt;br&gt;&lt;div&gt;&lt;font style=&quot;font-size: 11px&quot;&gt;&lt;font color=&quot;#E6E6E6&quot;&gt;%c4Description%&lt;/font&gt;&lt;/div&gt;" id="IgIEpAihZ9Cb06VBUbrS-235">
          <mxCell style="shape=mxgraph.c4.webBrowserContainer2;whiteSpace=wrap;html=1;boundedLbl=1;rounded=0;labelBackgroundColor=none;strokeColor=#118ACD;fillColor=#23A2D9;strokeColor=#118ACD;strokeColor2=#0E7DAD;fontSize=12;fontColor=#ffffff;align=center;metaEdit=1;points=[[0.5,0,0],[1,0.25,0],[1,0.5,0],[1,0.75,0],[0.5,1,0],[0,0.75,0],[0,0.5,0],[0,0.25,0]];resizable=0;" parent="1" vertex="1">
            <mxGeometry x="807.9200000000001" y="374" width="240" height="160" as="geometry" />
          </mxCell>
        </object>
        <mxCell id="IgIEpAihZ9Cb06VBUbrS-241" style="edgeStyle=orthogonalEdgeStyle;rounded=0;orthogonalLoop=1;jettySize=auto;html=1;entryX=0.271;entryY=-0.013;entryDx=0;entryDy=0;entryPerimeter=0;exitX=0.5;exitY=1;exitDx=0;exitDy=0;exitPerimeter=0;" parent="1" source="IgIEpAihZ9Cb06VBUbrS-235" target="IgIEpAihZ9Cb06VBUbrS-255" edge="1">
          <mxGeometry relative="1" as="geometry">
            <Array as="points">
              <mxPoint x="927.9200000000001" y="564" />
              <mxPoint x="1124.92" y="564" />
            </Array>
            <mxPoint x="673.9200000000001" y="524" as="sourcePoint" />
          </mxGeometry>
        </mxCell>
        <mxCell id="IgIEpAihZ9Cb06VBUbrS-242" value="JSON/HTTPS&lt;div&gt;Тесты, консультации&lt;/div&gt;" style="edgeLabel;html=1;align=center;verticalAlign=middle;resizable=0;points=[];" parent="IgIEpAihZ9Cb06VBUbrS-241" vertex="1" connectable="0">
          <mxGeometry x="-0.4846" y="2" relative="1" as="geometry">
            <mxPoint x="53" y="6" as="offset" />
          </mxGeometry>
        </mxCell>
        <mxCell id="slTmogsQ5nZODz0ifdsU-47" style="edgeStyle=orthogonalEdgeStyle;rounded=0;orthogonalLoop=1;jettySize=auto;html=1;exitX=0.843;exitY=0.238;exitDx=0;exitDy=0;exitPerimeter=0;entryX=1;entryY=0.5;entryDx=0;entryDy=0;entryPerimeter=0;" parent="1" source="IgIEpAihZ9Cb06VBUbrS-255" target="slTmogsQ5nZODz0ifdsU-46" edge="1">
          <mxGeometry relative="1" as="geometry">
            <mxPoint x="2270" y="1190" as="targetPoint" />
            <Array as="points">
              <mxPoint x="2240" y="645" />
              <mxPoint x="2240" y="1773" />
            </Array>
          </mxGeometry>
        </mxCell>
        <mxCell id="slTmogsQ5nZODz0ifdsU-49" value="REST API&lt;div&gt;Передача логов&lt;/div&gt;" style="edgeLabel;html=1;align=center;verticalAlign=middle;resizable=0;points=[];" parent="slTmogsQ5nZODz0ifdsU-47" vertex="1" connectable="0">
          <mxGeometry x="0.799" y="-1" relative="1" as="geometry">
            <mxPoint as="offset" />
          </mxGeometry>
        </mxCell>
        <object placeholders="1" c4Type="API Gateway" c4Container="API Gateway" c4Technology="Azure API" c4Description="Распределение нагрузки&#xa;на систему" label="&lt;font style=&quot;font-size: 16px&quot;&gt;&lt;b&gt;%c4Type%&lt;/b&gt;&lt;/font&gt;&lt;div&gt;[%c4Container%:&amp;nbsp;%c4Technology%]&lt;/div&gt;&lt;br&gt;&lt;div&gt;&lt;font style=&quot;font-size: 11px&quot;&gt;&lt;font color=&quot;#E6E6E6&quot;&gt;%c4Description%&lt;/font&gt;&lt;/div&gt;" id="IgIEpAihZ9Cb06VBUbrS-255">
          <mxCell style="shape=hexagon;size=50;perimeter=hexagonPerimeter2;whiteSpace=wrap;html=1;fixedSize=1;rounded=1;labelBackgroundColor=none;fillColor=#23A2D9;fontSize=12;fontColor=#ffffff;align=center;strokeColor=#0E7DAD;metaEdit=1;points=[[0.5,0,0],[1,0.25,0],[1,0.5,0],[1,0.75,0],[0.5,1,0],[0,0.75,0],[0,0.5,0],[0,0.25,0]];resizable=0;" parent="1" vertex="1">
            <mxGeometry x="1070.92" y="604" width="200" height="170" as="geometry" />
          </mxCell>
        </object>
        <object placeholders="1" c4Name="Сервис каталога тестов" c4Type="Component" c4Technology="Spring Service" c4Description="Добавление, редактирование, модерация и публикация методик" label="&lt;font style=&quot;font-size: 16px&quot;&gt;&lt;b&gt;%c4Name%&lt;/b&gt;&lt;/font&gt;&lt;div&gt;[%c4Type%: %c4Technology%]&lt;/div&gt;&lt;br&gt;&lt;div&gt;&lt;font style=&quot;font-size: 11px&quot;&gt;%c4Description%&lt;/font&gt;&lt;/div&gt;" id="dybIU9X_b_QxGpaB46xL-12">
          <mxCell style="rounded=1;whiteSpace=wrap;html=1;labelBackgroundColor=none;fillColor=#63BEF2;fontColor=#ffffff;align=center;arcSize=6;strokeColor=#2086C9;metaEdit=1;resizable=0;points=[[0.25,0,0],[0.5,0,0],[0.75,0,0],[1,0.25,0],[1,0.5,0],[1,0.75,0],[0.75,1,0],[0.5,1,0],[0.25,1,0],[0,0.75,0],[0,0.5,0],[0,0.25,0]];" parent="1" vertex="1">
            <mxGeometry x="1453.92" y="826" width="240" height="120" as="geometry" />
          </mxCell>
        </object>
        <mxCell id="dybIU9X_b_QxGpaB46xL-84" style="edgeStyle=orthogonalEdgeStyle;rounded=0;orthogonalLoop=1;jettySize=auto;html=1;entryX=0;entryY=0.5;entryDx=0;entryDy=0;entryPerimeter=0;" parent="1" source="dybIU9X_b_QxGpaB46xL-13" target="dybIU9X_b_QxGpaB46xL-82" edge="1">
          <mxGeometry relative="1" as="geometry" />
        </mxCell>
        <mxCell id="dybIU9X_b_QxGpaB46xL-92" value="ODBC&lt;br&gt;&lt;div&gt;Прогресс прохождения&lt;/div&gt;" style="edgeLabel;html=1;align=center;verticalAlign=middle;resizable=0;points=[];" parent="dybIU9X_b_QxGpaB46xL-84" vertex="1" connectable="0">
          <mxGeometry x="-0.1177" y="-4" relative="1" as="geometry">
            <mxPoint x="16" as="offset" />
          </mxGeometry>
        </mxCell>
        <object placeholders="1" c4Name="Сервис прохождения тестов" c4Type="Component" c4Technology="Spring Service" c4Description="Прохождение тестов, подсчёт результатов и их интерпретация" label="&lt;font style=&quot;font-size: 16px&quot;&gt;&lt;b&gt;%c4Name%&lt;/b&gt;&lt;/font&gt;&lt;div&gt;[%c4Type%: %c4Technology%]&lt;/div&gt;&lt;br&gt;&lt;div&gt;&lt;font style=&quot;font-size: 11px&quot;&gt;%c4Description%&lt;/font&gt;&lt;/div&gt;" id="dybIU9X_b_QxGpaB46xL-13">
          <mxCell style="rounded=1;whiteSpace=wrap;html=1;labelBackgroundColor=none;fillColor=#63BEF2;fontColor=#ffffff;align=center;arcSize=6;strokeColor=#2086C9;metaEdit=1;resizable=0;points=[[0.25,0,0],[0.5,0,0],[0.75,0,0],[1,0.25,0],[1,0.5,0],[1,0.75,0],[0.75,1,0],[0.5,1,0],[0.25,1,0],[0,0.75,0],[0,0.5,0],[0,0.25,0]];" parent="1" vertex="1">
            <mxGeometry x="1453.92" y="986" width="240" height="120" as="geometry" />
          </mxCell>
        </object>
        <mxCell id="slTmogsQ5nZODz0ifdsU-39" style="edgeStyle=orthogonalEdgeStyle;rounded=0;orthogonalLoop=1;jettySize=auto;html=1;exitX=0.75;exitY=0;exitDx=0;exitDy=0;exitPerimeter=0;entryX=0.5;entryY=0;entryDx=0;entryDy=0;entryPerimeter=0;" parent="1" source="dybIU9X_b_QxGpaB46xL-15" target="slTmogsQ5nZODz0ifdsU-1" edge="1">
          <mxGeometry relative="1" as="geometry">
            <Array as="points">
              <mxPoint x="837" y="1110" />
              <mxPoint x="100" y="1110" />
              <mxPoint x="100" y="1760" />
              <mxPoint x="240" y="1760" />
            </Array>
          </mxGeometry>
        </mxCell>
        <mxCell id="slTmogsQ5nZODz0ifdsU-45" value="JSON/HTTPS&lt;div&gt;Запрос на&lt;/div&gt;&lt;div&gt;создание конференции&lt;/div&gt;" style="edgeLabel;html=1;align=center;verticalAlign=middle;resizable=0;points=[];" parent="slTmogsQ5nZODz0ifdsU-39" vertex="1" connectable="0">
          <mxGeometry x="0.9209" y="-3" relative="1" as="geometry">
            <mxPoint y="-8" as="offset" />
          </mxGeometry>
        </mxCell>
        <object placeholders="1" c4Name="Сервис консультаций" c4Type="Component" c4Technology="Spring Service" c4Description="Запись, управление расписанием и проведение онлайн-консультаций" label="&lt;font style=&quot;font-size: 16px&quot;&gt;&lt;b&gt;%c4Name%&lt;/b&gt;&lt;/font&gt;&lt;div&gt;[%c4Type%: %c4Technology%]&lt;/div&gt;&lt;br&gt;&lt;div&gt;&lt;font style=&quot;font-size: 11px&quot;&gt;%c4Description%&lt;/font&gt;&lt;/div&gt;" id="dybIU9X_b_QxGpaB46xL-15">
          <mxCell style="rounded=1;whiteSpace=wrap;html=1;labelBackgroundColor=none;fillColor=#63BEF2;fontColor=#ffffff;align=center;arcSize=6;strokeColor=#2086C9;metaEdit=1;resizable=0;points=[[0.25,0,0],[0.5,0,0],[0.75,0,0],[1,0.25,0],[1,0.5,0],[1,0.75,0],[0.75,1,0],[0.5,1,0],[0.25,1,0],[0,0.75,0],[0,0.5,0],[0,0.25,0]];" parent="1" vertex="1">
            <mxGeometry x="656.9200000000001" y="1146" width="240" height="120" as="geometry" />
          </mxCell>
        </object>
        <object placeholders="1" c4Name="Сервис генерации отчётов" c4Type="Component" c4Technology="Spring Service" c4Description="Формирование аналитических и статистических отчётов" label="&lt;font style=&quot;font-size: 16px&quot;&gt;&lt;b&gt;%c4Name%&lt;/b&gt;&lt;/font&gt;&lt;div&gt;[%c4Type%: %c4Technology%]&lt;/div&gt;&lt;br&gt;&lt;div&gt;&lt;font style=&quot;font-size: 11px&quot;&gt;%c4Description%&lt;/font&gt;&lt;/div&gt;" id="dybIU9X_b_QxGpaB46xL-17">
          <mxCell style="rounded=1;whiteSpace=wrap;html=1;labelBackgroundColor=none;fillColor=#63BEF2;fontColor=#ffffff;align=center;arcSize=6;strokeColor=#2086C9;metaEdit=1;resizable=0;points=[[0.25,0,0],[0.5,0,0],[0.75,0,0],[1,0.25,0],[1,0.5,0],[1,0.75,0],[0.75,1,0],[0.5,1,0],[0.25,1,0],[0,0.75,0],[0,0.5,0],[0,0.25,0]];" parent="1" vertex="1">
            <mxGeometry x="656.9200000000001" y="1310" width="240" height="120" as="geometry" />
          </mxCell>
        </object>
        <mxCell id="dybIU9X_b_QxGpaB46xL-61" style="edgeStyle=orthogonalEdgeStyle;rounded=0;orthogonalLoop=1;jettySize=auto;html=1;" parent="1" source="dybIU9X_b_QxGpaB46xL-22" target="dybIU9X_b_QxGpaB46xL-51" edge="1">
          <mxGeometry relative="1" as="geometry" />
        </mxCell>
        <mxCell id="dybIU9X_b_QxGpaB46xL-63" value="ODBC&lt;div&gt;Управление данными о пользователях&lt;/div&gt;" style="edgeLabel;html=1;align=center;verticalAlign=middle;resizable=0;points=[];" parent="dybIU9X_b_QxGpaB46xL-61" vertex="1" connectable="0">
          <mxGeometry x="-0.1536" y="-3" relative="1" as="geometry">
            <mxPoint x="-15" y="3" as="offset" />
          </mxGeometry>
        </mxCell>
        <mxCell id="dybIU9X_b_QxGpaB46xL-105" style="edgeStyle=orthogonalEdgeStyle;rounded=0;orthogonalLoop=1;jettySize=auto;html=1;exitX=0;exitY=0.75;exitDx=0;exitDy=0;exitPerimeter=0;entryX=0.81;entryY=0.979;entryDx=0;entryDy=0;entryPerimeter=0;" parent="1" source="dybIU9X_b_QxGpaB46xL-22" target="9-r7pxpzZl9MhB8DkIxH-1" edge="1">
          <mxGeometry relative="1" as="geometry">
            <mxPoint x="1303.92" y="1590" as="targetPoint" />
            <Array as="points">
              <mxPoint x="593.9200000000001" y="916" />
              <mxPoint x="593.9200000000001" y="1612" />
            </Array>
          </mxGeometry>
        </mxCell>
        <mxCell id="dybIU9X_b_QxGpaB46xL-107" value="&lt;div&gt;Kafka Native Protocol (TCP)&lt;/div&gt;Уведомления о регистрации&lt;div&gt;и входе, SMS-коды&lt;/div&gt;" style="edgeLabel;html=1;align=center;verticalAlign=middle;resizable=0;points=[];" parent="dybIU9X_b_QxGpaB46xL-105" vertex="1" connectable="0">
          <mxGeometry x="0.5724" y="-1" relative="1" as="geometry">
            <mxPoint x="-113" y="1" as="offset" />
          </mxGeometry>
        </mxCell>
        <object placeholders="1" c4Name="Сервис управления пользователями" c4Type="Component" c4Technology="Spring Service" c4Description="Регистрация, аутентификация, обработка профилей пользователей, их ролей и прав доступа" label="&lt;font style=&quot;font-size: 16px&quot;&gt;&lt;b&gt;%c4Name%&lt;/b&gt;&lt;/font&gt;&lt;div&gt;[%c4Type%: %c4Technology%]&lt;/div&gt;&lt;br&gt;&lt;div&gt;&lt;font style=&quot;font-size: 11px&quot;&gt;%c4Description%&lt;/font&gt;&lt;/div&gt;" id="dybIU9X_b_QxGpaB46xL-22">
          <mxCell style="rounded=1;whiteSpace=wrap;html=1;labelBackgroundColor=none;fillColor=#63BEF2;fontColor=#ffffff;align=center;arcSize=6;strokeColor=#2086C9;metaEdit=1;resizable=0;points=[[0.25,0,0],[0.5,0,0],[0.75,0,0],[1,0.25,0],[1,0.5,0],[1,0.75,0],[0.75,1,0],[0.5,1,0],[0.25,1,0],[0,0.75,0],[0,0.5,0],[0,0.25,0]];" parent="1" vertex="1">
            <mxGeometry x="656.9200000000001" y="826" width="240" height="120" as="geometry" />
          </mxCell>
        </object>
        <object placeholders="1" c4Name="Платёжная система" c4Type="Software System" c4Description="Проведение оплаты по картам или сервис ОПЛАТИ" label="&lt;font style=&quot;font-size: 16px&quot;&gt;&lt;b&gt;%c4Name%&lt;/b&gt;&lt;/font&gt;&lt;div&gt;[%c4Type%]&lt;/div&gt;&lt;br&gt;&lt;div&gt;&lt;font style=&quot;font-size: 11px&quot;&gt;&lt;font color=&quot;#cccccc&quot;&gt;%c4Description%&lt;/font&gt;&lt;/div&gt;" id="dybIU9X_b_QxGpaB46xL-31">
          <mxCell style="rounded=1;whiteSpace=wrap;html=1;labelBackgroundColor=none;fillColor=#8C8496;fontColor=#ffffff;align=center;arcSize=10;strokeColor=#736782;metaEdit=1;resizable=0;points=[[0.25,0,0],[0.5,0,0],[0.75,0,0],[1,0.25,0],[1,0.5,0],[1,0.75,0],[0.75,1,0],[0.5,1,0],[0.25,1,0],[0,0.75,0],[0,0.5,0],[0,0.25,0]];" parent="1" vertex="1">
            <mxGeometry x="635.9200000000001" y="1942" width="240" height="120" as="geometry" />
          </mxCell>
        </object>
        <mxCell id="FC1DLJF5XPwhJtV18IFF-1" style="edgeStyle=orthogonalEdgeStyle;rounded=0;orthogonalLoop=1;jettySize=auto;html=1;exitX=0.25;exitY=1;exitDx=0;exitDy=0;exitPerimeter=0;entryX=0;entryY=0.5;entryDx=0;entryDy=0;entryPerimeter=0;" parent="1" source="dybIU9X_b_QxGpaB46xL-47" target="IgIEpAihZ9Cb06VBUbrS-235" edge="1">
          <mxGeometry relative="1" as="geometry">
            <mxPoint x="103.92000000000007" y="264" as="targetPoint" />
            <Array as="points">
              <mxPoint x="1113" y="2113" />
              <mxPoint x="40" y="2113" />
              <mxPoint x="40" y="454" />
            </Array>
          </mxGeometry>
        </mxCell>
        <mxCell id="E6AMx3-ogNpxGLGxgDXm-5" value="SMTP/SMPP&lt;br&gt;Уведомления для Пользователей" style="edgeLabel;html=1;align=center;verticalAlign=middle;resizable=0;points=[];" parent="FC1DLJF5XPwhJtV18IFF-1" vertex="1" connectable="0">
          <mxGeometry x="-0.6426" y="-2" relative="1" as="geometry">
            <mxPoint x="219" as="offset" />
          </mxGeometry>
        </mxCell>
        <mxCell id="E6AMx3-ogNpxGLGxgDXm-3" style="edgeStyle=orthogonalEdgeStyle;rounded=0;orthogonalLoop=1;jettySize=auto;html=1;exitX=0.75;exitY=1;exitDx=0;exitDy=0;exitPerimeter=0;entryX=1;entryY=0.5;entryDx=0;entryDy=0;entryPerimeter=0;" parent="1" source="dybIU9X_b_QxGpaB46xL-47" target="IgIEpAihZ9Cb06VBUbrS-199" edge="1">
          <mxGeometry relative="1" as="geometry">
            <mxPoint x="2313.92" y="894" as="targetPoint" />
            <Array as="points">
              <mxPoint x="1233" y="2113" />
              <mxPoint x="2320" y="2113" />
              <mxPoint x="2320" y="454" />
            </Array>
          </mxGeometry>
        </mxCell>
        <mxCell id="E6AMx3-ogNpxGLGxgDXm-6" value="SMTP/SMPP&lt;br&gt;Уведомления для Администратора" style="edgeLabel;html=1;align=center;verticalAlign=middle;resizable=0;points=[];" parent="E6AMx3-ogNpxGLGxgDXm-3" vertex="1" connectable="0">
          <mxGeometry x="-0.8819" y="-4" relative="1" as="geometry">
            <mxPoint x="441" as="offset" />
          </mxGeometry>
        </mxCell>
        <object placeholders="1" c4Name="Система отправки уведомлений" c4Type="Software System" c4Description="Рассылка уведомлений" label="&lt;font style=&quot;font-size: 16px&quot;&gt;&lt;b&gt;%c4Name%&lt;/b&gt;&lt;/font&gt;&lt;div&gt;[%c4Type%]&lt;/div&gt;&lt;br&gt;&lt;div&gt;&lt;font style=&quot;font-size: 11px&quot;&gt;&lt;font color=&quot;#cccccc&quot;&gt;%c4Description%&lt;/font&gt;&lt;/div&gt;" id="dybIU9X_b_QxGpaB46xL-47">
          <mxCell style="rounded=1;whiteSpace=wrap;html=1;labelBackgroundColor=none;fillColor=#8C8496;fontColor=#ffffff;align=center;arcSize=10;strokeColor=#736782;metaEdit=1;resizable=0;points=[[0.25,0,0],[0.5,0,0],[0.75,0,0],[1,0.25,0],[1,0.5,0],[1,0.75,0],[0.75,1,0],[0.5,1,0],[0.25,1,0],[0,0.75,0],[0,0.5,0],[0,0.25,0]];" parent="1" vertex="1">
            <mxGeometry x="1052.92" y="1942" width="240" height="120" as="geometry" />
          </mxCell>
        </object>
        <object placeholders="1" c4Type="БД" c4Container="Container" c4Technology="PostgreSQL" c4Description="БД пользователей" label="&lt;font style=&quot;font-size: 16px&quot;&gt;&lt;b&gt;%c4Type%&lt;/b&gt;&lt;/font&gt;&lt;div&gt;[%c4Container%:&amp;nbsp;%c4Technology%]&lt;/div&gt;&lt;br&gt;&lt;div&gt;&lt;font style=&quot;font-size: 11px&quot;&gt;&lt;font color=&quot;#E6E6E6&quot;&gt;%c4Description%&lt;/font&gt;&lt;/div&gt;" id="dybIU9X_b_QxGpaB46xL-51">
          <mxCell style="shape=cylinder3;size=15;whiteSpace=wrap;html=1;boundedLbl=1;rounded=0;labelBackgroundColor=none;fillColor=#23A2D9;fontSize=12;fontColor=#ffffff;align=center;strokeColor=#0E7DAD;metaEdit=1;points=[[0.5,0,0],[1,0.25,0],[1,0.5,0],[1,0.75,0],[0.5,1,0],[0,0.75,0],[0,0.5,0],[0,0.25,0]];resizable=0;" parent="1" vertex="1">
            <mxGeometry x="159.92000000000007" y="826" width="240" height="120" as="geometry" />
          </mxCell>
        </object>
        <mxCell id="dybIU9X_b_QxGpaB46xL-59" style="edgeStyle=orthogonalEdgeStyle;rounded=0;orthogonalLoop=1;jettySize=auto;html=1;entryX=1;entryY=0.5;entryDx=0;entryDy=0;entryPerimeter=0;exitX=0;exitY=0.5;exitDx=0;exitDy=0;exitPerimeter=0;" parent="1" source="IgIEpAihZ9Cb06VBUbrS-255" target="dybIU9X_b_QxGpaB46xL-22" edge="1">
          <mxGeometry relative="1" as="geometry">
            <mxPoint x="1103.92" y="754" as="sourcePoint" />
            <Array as="points">
              <mxPoint x="1012.9200000000001" y="689" />
              <mxPoint x="1012.9200000000001" y="884" />
              <mxPoint x="896.9200000000001" y="884" />
            </Array>
          </mxGeometry>
        </mxCell>
        <mxCell id="dybIU9X_b_QxGpaB46xL-60" value="REST API&lt;div&gt;Доступ к профилю&lt;/div&gt;" style="edgeLabel;html=1;align=center;verticalAlign=middle;resizable=0;points=[];" parent="dybIU9X_b_QxGpaB46xL-59" vertex="1" connectable="0">
          <mxGeometry x="0.3723" y="-6" relative="1" as="geometry">
            <mxPoint x="-52" y="-12" as="offset" />
          </mxGeometry>
        </mxCell>
        <object placeholders="1" c4Type="БД" c4Container="Container" c4Technology="PostgreSQL" c4Description="БД с отчётами" label="&lt;font style=&quot;font-size: 16px&quot;&gt;&lt;b&gt;%c4Type%&lt;/b&gt;&lt;/font&gt;&lt;div&gt;[%c4Container%:&amp;nbsp;%c4Technology%]&lt;/div&gt;&lt;br&gt;&lt;div&gt;&lt;font style=&quot;font-size: 11px&quot;&gt;&lt;font color=&quot;#E6E6E6&quot;&gt;%c4Description%&lt;/font&gt;&lt;/div&gt;" id="dybIU9X_b_QxGpaB46xL-65">
          <mxCell style="shape=cylinder3;size=15;whiteSpace=wrap;html=1;boundedLbl=1;rounded=0;labelBackgroundColor=none;fillColor=#23A2D9;fontSize=12;fontColor=#ffffff;align=center;strokeColor=#0E7DAD;metaEdit=1;points=[[0.5,0,0],[1,0.25,0],[1,0.5,0],[1,0.75,0],[0.5,1,0],[0,0.75,0],[0,0.5,0],[0,0.25,0]];resizable=0;" parent="1" vertex="1">
            <mxGeometry x="159.92000000000007" y="1310" width="240" height="120" as="geometry" />
          </mxCell>
        </object>
        <mxCell id="dybIU9X_b_QxGpaB46xL-72" style="edgeStyle=orthogonalEdgeStyle;rounded=0;orthogonalLoop=1;jettySize=auto;html=1;entryX=1;entryY=0.5;entryDx=0;entryDy=0;entryPerimeter=0;exitX=0.271;exitY=0.987;exitDx=0;exitDy=0;exitPerimeter=0;" parent="1" source="IgIEpAihZ9Cb06VBUbrS-255" target="dybIU9X_b_QxGpaB46xL-17" edge="1">
          <mxGeometry relative="1" as="geometry">
            <Array as="points">
              <mxPoint x="1124.92" y="1370" />
            </Array>
          </mxGeometry>
        </mxCell>
        <mxCell id="dybIU9X_b_QxGpaB46xL-73" value="REST API&lt;br&gt;Ведение отчётностм" style="edgeLabel;html=1;align=center;verticalAlign=middle;resizable=0;points=[];" parent="dybIU9X_b_QxGpaB46xL-72" vertex="1" connectable="0">
          <mxGeometry x="0.8212" y="4" relative="1" as="geometry">
            <mxPoint x="97" y="-21" as="offset" />
          </mxGeometry>
        </mxCell>
        <mxCell id="dybIU9X_b_QxGpaB46xL-74" style="edgeStyle=orthogonalEdgeStyle;rounded=0;orthogonalLoop=1;jettySize=auto;html=1;exitX=1;exitY=0.5;exitDx=0;exitDy=0;exitPerimeter=0;entryX=0;entryY=0.5;entryDx=0;entryDy=0;entryPerimeter=0;" parent="1" source="IgIEpAihZ9Cb06VBUbrS-255" target="dybIU9X_b_QxGpaB46xL-12" edge="1">
          <mxGeometry relative="1" as="geometry">
            <Array as="points">
              <mxPoint x="1332.92" y="689" />
              <mxPoint x="1332.92" y="886" />
            </Array>
          </mxGeometry>
        </mxCell>
        <mxCell id="dybIU9X_b_QxGpaB46xL-88" value="&lt;div&gt;REST API&lt;/div&gt;&lt;div&gt;Работа с тестами&lt;/div&gt;" style="edgeLabel;html=1;align=center;verticalAlign=middle;resizable=0;points=[];" parent="dybIU9X_b_QxGpaB46xL-74" vertex="1" connectable="0">
          <mxGeometry x="0.6851" y="-4" relative="1" as="geometry">
            <mxPoint x="-14" y="-22" as="offset" />
          </mxGeometry>
        </mxCell>
        <mxCell id="dybIU9X_b_QxGpaB46xL-75" style="edgeStyle=orthogonalEdgeStyle;rounded=0;orthogonalLoop=1;jettySize=auto;html=1;exitX=0.929;exitY=0.639;exitDx=0;exitDy=0;exitPerimeter=0;entryX=0;entryY=0.5;entryDx=0;entryDy=0;entryPerimeter=0;" parent="1" source="IgIEpAihZ9Cb06VBUbrS-255" target="dybIU9X_b_QxGpaB46xL-13" edge="1">
          <mxGeometry relative="1" as="geometry">
            <Array as="points">
              <mxPoint x="1292.92" y="713" />
              <mxPoint x="1292.92" y="1046" />
            </Array>
          </mxGeometry>
        </mxCell>
        <mxCell id="dybIU9X_b_QxGpaB46xL-91" value="REST API&lt;div&gt;Тестирование&lt;/div&gt;" style="edgeLabel;html=1;align=center;verticalAlign=middle;resizable=0;points=[];" parent="dybIU9X_b_QxGpaB46xL-75" vertex="1" connectable="0">
          <mxGeometry x="0.6588" y="-2" relative="1" as="geometry">
            <mxPoint x="-32" y="-18" as="offset" />
          </mxGeometry>
        </mxCell>
        <mxCell id="dybIU9X_b_QxGpaB46xL-76" style="edgeStyle=orthogonalEdgeStyle;rounded=0;orthogonalLoop=1;jettySize=auto;html=1;exitX=0.818;exitY=0.871;exitDx=0;exitDy=0;exitPerimeter=0;entryX=0;entryY=0.5;entryDx=0;entryDy=0;entryPerimeter=0;" parent="1" source="IgIEpAihZ9Cb06VBUbrS-255" target="3iiHtszf_FVkRYXRa1Re-2" edge="1">
          <mxGeometry relative="1" as="geometry">
            <mxPoint x="1453.92" y="1206" as="targetPoint" />
            <Array as="points">
              <mxPoint x="1252.92" y="752" />
              <mxPoint x="1252.92" y="1206" />
            </Array>
          </mxGeometry>
        </mxCell>
        <mxCell id="dybIU9X_b_QxGpaB46xL-93" value="REST API&lt;div&gt;Оценка и обратная связь&lt;/div&gt;" style="edgeLabel;html=1;align=center;verticalAlign=middle;resizable=0;points=[];" parent="dybIU9X_b_QxGpaB46xL-76" vertex="1" connectable="0">
          <mxGeometry x="0.7443" y="1" relative="1" as="geometry">
            <mxPoint x="-50" y="-16" as="offset" />
          </mxGeometry>
        </mxCell>
        <object placeholders="1" c4Type="БД" c4Container="Container" c4Technology="PostgreSQL" c4Description="БД прохождений тестов" label="&lt;font style=&quot;font-size: 16px&quot;&gt;&lt;b&gt;%c4Type%&lt;/b&gt;&lt;/font&gt;&lt;div&gt;[%c4Container%:&amp;nbsp;%c4Technology%]&lt;/div&gt;&lt;br&gt;&lt;div&gt;&lt;font style=&quot;font-size: 11px&quot;&gt;&lt;font color=&quot;#E6E6E6&quot;&gt;%c4Description%&lt;/font&gt;&lt;/div&gt;" id="dybIU9X_b_QxGpaB46xL-82">
          <mxCell style="shape=cylinder3;size=15;whiteSpace=wrap;html=1;boundedLbl=1;rounded=0;labelBackgroundColor=none;fillColor=#23A2D9;fontSize=12;fontColor=#ffffff;align=center;strokeColor=#0E7DAD;metaEdit=1;points=[[0.5,0,0],[1,0.25,0],[1,0.5,0],[1,0.75,0],[0.5,1,0],[0,0.75,0],[0,0.5,0],[0,0.25,0]];resizable=0;" parent="1" vertex="1">
            <mxGeometry x="1957.92" y="986" width="240" height="120" as="geometry" />
          </mxCell>
        </object>
        <object placeholders="1" c4Type="БД" c4Container="Container" c4Technology="PostgreSQL" c4Description="БД тестов" label="&lt;font style=&quot;font-size: 16px&quot;&gt;&lt;b&gt;%c4Type%&lt;/b&gt;&lt;/font&gt;&lt;div&gt;[%c4Container%:&amp;nbsp;%c4Technology%]&lt;/div&gt;&lt;br&gt;&lt;div&gt;&lt;font style=&quot;font-size: 11px&quot;&gt;&lt;font color=&quot;#E6E6E6&quot;&gt;%c4Description%&lt;/font&gt;&lt;/div&gt;" id="dybIU9X_b_QxGpaB46xL-83">
          <mxCell style="shape=cylinder3;size=15;whiteSpace=wrap;html=1;boundedLbl=1;rounded=0;labelBackgroundColor=none;fillColor=#23A2D9;fontSize=12;fontColor=#ffffff;align=center;strokeColor=#0E7DAD;metaEdit=1;points=[[0.5,0,0],[1,0.25,0],[1,0.5,0],[1,0.75,0],[0.5,1,0],[0,0.75,0],[0,0.5,0],[0,0.25,0]];resizable=0;" parent="1" vertex="1">
            <mxGeometry x="1957.92" y="826" width="240" height="120" as="geometry" />
          </mxCell>
        </object>
        <mxCell id="dybIU9X_b_QxGpaB46xL-85" style="edgeStyle=orthogonalEdgeStyle;rounded=0;orthogonalLoop=1;jettySize=auto;html=1;exitX=1;exitY=0.5;exitDx=0;exitDy=0;exitPerimeter=0;entryX=0;entryY=0.5;entryDx=0;entryDy=0;entryPerimeter=0;" parent="1" source="dybIU9X_b_QxGpaB46xL-12" target="dybIU9X_b_QxGpaB46xL-83" edge="1">
          <mxGeometry relative="1" as="geometry" />
        </mxCell>
        <mxCell id="dybIU9X_b_QxGpaB46xL-86" value="&lt;div&gt;&lt;br&gt;&lt;/div&gt;" style="edgeLabel;html=1;align=center;verticalAlign=middle;resizable=0;points=[];" parent="dybIU9X_b_QxGpaB46xL-85" vertex="1" connectable="0">
          <mxGeometry x="-0.08" y="-1" relative="1" as="geometry">
            <mxPoint x="13" y="-67" as="offset" />
          </mxGeometry>
        </mxCell>
        <mxCell id="dybIU9X_b_QxGpaB46xL-90" value="ODBC&lt;br&gt;SCRUD сценарии для&lt;div&gt;тестов&lt;/div&gt;" style="edgeLabel;html=1;align=center;verticalAlign=middle;resizable=0;points=[];" parent="dybIU9X_b_QxGpaB46xL-85" vertex="1" connectable="0">
          <mxGeometry x="-0.022" y="-4" relative="1" as="geometry">
            <mxPoint as="offset" />
          </mxGeometry>
        </mxCell>
        <mxCell id="dybIU9X_b_QxGpaB46xL-94" style="edgeStyle=orthogonalEdgeStyle;rounded=0;orthogonalLoop=1;jettySize=auto;html=1;exitX=0.194;exitY=0.863;exitDx=0;exitDy=0;exitPerimeter=0;entryX=1;entryY=0.5;entryDx=0;entryDy=0;entryPerimeter=0;" parent="1" source="IgIEpAihZ9Cb06VBUbrS-255" target="dybIU9X_b_QxGpaB46xL-15" edge="1">
          <mxGeometry relative="1" as="geometry">
            <Array as="points">
              <mxPoint x="1092.92" y="751" />
              <mxPoint x="1092.92" y="1206" />
            </Array>
          </mxGeometry>
        </mxCell>
        <mxCell id="wCWhawvrQmdrP9PijYhx-5" value="REST APi&lt;div&gt;Планирование и&lt;/div&gt;&lt;div&gt;проведение консультаций&lt;/div&gt;" style="edgeLabel;html=1;align=center;verticalAlign=middle;resizable=0;points=[];" parent="dybIU9X_b_QxGpaB46xL-94" vertex="1" connectable="0">
          <mxGeometry x="0.75" y="-5" relative="1" as="geometry">
            <mxPoint x="41" y="-19" as="offset" />
          </mxGeometry>
        </mxCell>
        <object placeholders="1" c4Name="Сервис уведомлений" c4Type="Component" c4Technology="Spring Service" c4Description="Настройка отправки уведомлений пользователям" label="&lt;font style=&quot;font-size: 16px&quot;&gt;&lt;b&gt;%c4Name%&lt;/b&gt;&lt;/font&gt;&lt;div&gt;[%c4Type%: %c4Technology%]&lt;/div&gt;&lt;br&gt;&lt;div&gt;&lt;font style=&quot;font-size: 11px&quot;&gt;%c4Description%&lt;/font&gt;&lt;/div&gt;" id="dybIU9X_b_QxGpaB46xL-95">
          <mxCell style="rounded=1;whiteSpace=wrap;html=1;labelBackgroundColor=none;fillColor=#63BEF2;fontColor=#ffffff;align=center;arcSize=6;strokeColor=#2086C9;metaEdit=1;resizable=0;points=[[0.25,0,0],[0.5,0,0],[0.75,0,0],[1,0.25,0],[1,0.5,0],[1,0.75,0],[0.75,1,0],[0.5,1,0],[0.25,1,0],[0,0.75,0],[0,0.5,0],[0,0.25,0]];" parent="1" vertex="1">
            <mxGeometry x="1453.92" y="1310" width="240" height="120" as="geometry" />
          </mxCell>
        </object>
        <object placeholders="1" c4Type="БД" c4Container="Container" c4Technology="PostgreSQL" c4Description="БД уведомлений" label="&lt;font style=&quot;font-size: 16px&quot;&gt;&lt;b&gt;%c4Type%&lt;/b&gt;&lt;/font&gt;&lt;div&gt;[%c4Container%:&amp;nbsp;%c4Technology%]&lt;/div&gt;&lt;br&gt;&lt;div&gt;&lt;font style=&quot;font-size: 11px&quot;&gt;&lt;font color=&quot;#E6E6E6&quot;&gt;%c4Description%&lt;/font&gt;&lt;/div&gt;" id="dybIU9X_b_QxGpaB46xL-96">
          <mxCell style="shape=cylinder3;size=15;whiteSpace=wrap;html=1;boundedLbl=1;rounded=0;labelBackgroundColor=none;fillColor=#23A2D9;fontSize=12;fontColor=#ffffff;align=center;strokeColor=#0E7DAD;metaEdit=1;points=[[0.5,0,0],[1,0.25,0],[1,0.5,0],[1,0.75,0],[0.5,1,0],[0,0.75,0],[0,0.5,0],[0,0.25,0]];resizable=0;" parent="1" vertex="1">
            <mxGeometry x="1957.92" y="1310" width="240" height="120" as="geometry" />
          </mxCell>
        </object>
        <mxCell id="dybIU9X_b_QxGpaB46xL-97" style="edgeStyle=orthogonalEdgeStyle;rounded=0;orthogonalLoop=1;jettySize=auto;html=1;exitX=1;exitY=0.5;exitDx=0;exitDy=0;exitPerimeter=0;entryX=0;entryY=0.5;entryDx=0;entryDy=0;entryPerimeter=0;" parent="1" source="dybIU9X_b_QxGpaB46xL-95" target="dybIU9X_b_QxGpaB46xL-96" edge="1">
          <mxGeometry relative="1" as="geometry" />
        </mxCell>
        <mxCell id="dybIU9X_b_QxGpaB46xL-98" value="ODBC&lt;br&gt;Шаблоны и&lt;div&gt;настройки отправки&lt;/div&gt;" style="edgeLabel;html=1;align=center;verticalAlign=middle;resizable=0;points=[];" parent="dybIU9X_b_QxGpaB46xL-97" vertex="1" connectable="0">
          <mxGeometry x="0.0086" y="2" relative="1" as="geometry">
            <mxPoint x="33" as="offset" />
          </mxGeometry>
        </mxCell>
        <object placeholders="1" c4Name="Брокер" c4Type="Container" c4Technology="Apache Kafka" c4Description="Очередь на оплату" label="&lt;font style=&quot;font-size: 16px&quot;&gt;&lt;b&gt;%c4Name%&lt;/b&gt;&lt;/font&gt;&lt;div&gt;[%c4Type%:&amp;nbsp;%c4Technology%]&lt;/div&gt;&lt;br&gt;&lt;div&gt;&lt;font style=&quot;font-size: 11px&quot;&gt;&lt;font color=&quot;#E6E6E6&quot;&gt;%c4Description%&lt;/font&gt;&lt;/div&gt;" id="dybIU9X_b_QxGpaB46xL-113">
          <mxCell style="shape=cylinder3;size=15;direction=south;whiteSpace=wrap;html=1;boundedLbl=1;rounded=0;labelBackgroundColor=none;fillColor=#23A2D9;fontSize=12;fontColor=#ffffff;align=center;strokeColor=#0E7DAD;metaEdit=1;points=[[0.5,0,0],[1,0.25,0],[1,0.5,0],[1,0.75,0],[0.5,1,0],[0,0.75,0],[0,0.5,0],[0,0.25,0]];resizable=0;" parent="1" vertex="1">
            <mxGeometry x="159.92000000000007" y="1515" width="240" height="120" as="geometry" />
          </mxCell>
        </object>
        <mxCell id="dybIU9X_b_QxGpaB46xL-114" style="edgeStyle=orthogonalEdgeStyle;rounded=0;orthogonalLoop=1;jettySize=auto;html=1;entryX=0.5;entryY=1;entryDx=0;entryDy=0;entryPerimeter=0;exitX=0.25;exitY=0;exitDx=0;exitDy=0;exitPerimeter=0;" parent="1" source="dybIU9X_b_QxGpaB46xL-15" target="dybIU9X_b_QxGpaB46xL-113" edge="1">
          <mxGeometry relative="1" as="geometry">
            <Array as="points">
              <mxPoint x="716.9200000000001" y="1133" />
              <mxPoint x="139.92000000000007" y="1133" />
              <mxPoint x="139.92000000000007" y="1575" />
            </Array>
            <mxPoint x="529.9200000000001" y="1433" as="sourcePoint" />
          </mxGeometry>
        </mxCell>
        <mxCell id="dybIU9X_b_QxGpaB46xL-121" value="Kafka Native Protocol (TCP)&lt;div&gt;Формирование запроса на оплату&lt;/div&gt;" style="edgeLabel;html=1;align=center;verticalAlign=middle;resizable=0;points=[];" parent="dybIU9X_b_QxGpaB46xL-114" vertex="1" connectable="0">
          <mxGeometry x="0.7729" y="1" relative="1" as="geometry">
            <mxPoint x="72" y="-2" as="offset" />
          </mxGeometry>
        </mxCell>
        <mxCell id="dybIU9X_b_QxGpaB46xL-116" style="edgeStyle=orthogonalEdgeStyle;rounded=0;orthogonalLoop=1;jettySize=auto;html=1;exitX=0;exitY=0.75;exitDx=0;exitDy=0;exitPerimeter=0;entryX=0.157;entryY=0.993;entryDx=0;entryDy=0;entryPerimeter=0;" parent="1" source="dybIU9X_b_QxGpaB46xL-15" target="9-r7pxpzZl9MhB8DkIxH-1" edge="1">
          <mxGeometry relative="1" as="geometry">
            <Array as="points">
              <mxPoint x="632.9200000000001" y="1236" />
              <mxPoint x="632.9200000000001" y="1533" />
            </Array>
            <mxPoint x="982.9200000000001" y="1853" as="targetPoint" />
          </mxGeometry>
        </mxCell>
        <mxCell id="wCWhawvrQmdrP9PijYhx-17" value="&lt;div&gt;Kafka Native Protocol (TCP)&lt;/div&gt;&lt;div&gt;Напоминания о записях&lt;/div&gt;" style="edgeLabel;html=1;align=center;verticalAlign=middle;resizable=0;points=[];" parent="dybIU9X_b_QxGpaB46xL-116" vertex="1" connectable="0">
          <mxGeometry x="-0.4928" y="-2" relative="1" as="geometry">
            <mxPoint x="324" y="132" as="offset" />
          </mxGeometry>
        </mxCell>
        <mxCell id="dybIU9X_b_QxGpaB46xL-117" style="edgeStyle=orthogonalEdgeStyle;rounded=0;orthogonalLoop=1;jettySize=auto;html=1;exitX=1;exitY=0.75;exitDx=0;exitDy=0;exitPerimeter=0;entryX=0.5;entryY=0;entryDx=0;entryDy=0;entryPerimeter=0;" parent="1" source="dybIU9X_b_QxGpaB46xL-13" target="9-r7pxpzZl9MhB8DkIxH-1" edge="1">
          <mxGeometry relative="1" as="geometry">
            <Array as="points">
              <mxPoint x="1739.92" y="1076" />
              <mxPoint x="1739.92" y="1575" />
            </Array>
          </mxGeometry>
        </mxCell>
        <mxCell id="wCWhawvrQmdrP9PijYhx-13" value="&lt;div&gt;Kafka Native Protocol (TCP)&lt;/div&gt;Напоминания продолжить прохождение&lt;div&gt;и результаты&lt;/div&gt;" style="edgeLabel;html=1;align=center;verticalAlign=middle;resizable=0;points=[];" parent="dybIU9X_b_QxGpaB46xL-117" vertex="1" connectable="0">
          <mxGeometry x="-0.8778" y="4" relative="1" as="geometry">
            <mxPoint x="-215" y="493" as="offset" />
          </mxGeometry>
        </mxCell>
        <object placeholders="1" c4Name="Backend PsyMirror" c4Type="SystemScopeBoundary" c4Application="Container" label="&lt;font style=&quot;font-size: 16px&quot;&gt;&lt;b&gt;&lt;div style=&quot;text-align: left&quot;&gt;%c4Name%&lt;/div&gt;&lt;/b&gt;&lt;/font&gt;&lt;div style=&quot;text-align: left&quot;&gt;[%c4Application%]&lt;/div&gt;" id="dybIU9X_b_QxGpaB46xL-122">
          <mxCell style="rounded=1;fontSize=11;whiteSpace=wrap;html=1;dashed=1;arcSize=20;fillColor=none;strokeColor=#666666;fontColor=#333333;labelBackgroundColor=none;align=left;verticalAlign=bottom;labelBorderColor=none;spacingTop=0;spacing=10;dashPattern=8 4;metaEdit=1;rotatable=0;perimeter=rectanglePerimeter;noLabel=0;labelPadding=0;allowArrows=0;connectable=0;expand=0;recursiveResize=0;editable=1;pointerEvents=0;absoluteArcSize=1;points=[[0.25,0,0],[0.5,0,0],[0.75,0,0],[1,0.25,0],[1,0.5,0],[1,0.75,0],[0.75,1,0],[0.5,1,0],[0.25,1,0],[0,0.75,0],[0,0.5,0],[0,0.25,0]];" parent="1" vertex="1">
            <mxGeometry x="80" y="543" width="2200" height="1387" as="geometry" />
          </mxCell>
        </object>
        <mxCell id="wCWhawvrQmdrP9PijYhx-4" style="edgeStyle=orthogonalEdgeStyle;rounded=0;orthogonalLoop=1;jettySize=auto;html=1;exitX=0.738;exitY=1.001;exitDx=0;exitDy=0;exitPerimeter=0;entryX=0;entryY=0.5;entryDx=0;entryDy=0;entryPerimeter=0;" parent="1" source="IgIEpAihZ9Cb06VBUbrS-255" target="dybIU9X_b_QxGpaB46xL-95" edge="1">
          <mxGeometry relative="1" as="geometry">
            <Array as="points">
              <mxPoint x="1218.92" y="1370" />
            </Array>
          </mxGeometry>
        </mxCell>
        <mxCell id="wCWhawvrQmdrP9PijYhx-6" value="REST API&lt;br&gt;Вызов отправки уведомлений" style="edgeLabel;html=1;align=center;verticalAlign=middle;resizable=0;points=[];" parent="wCWhawvrQmdrP9PijYhx-4" vertex="1" connectable="0">
          <mxGeometry x="0.5627" y="5" relative="1" as="geometry">
            <mxPoint x="25" y="-11" as="offset" />
          </mxGeometry>
        </mxCell>
        <mxCell id="wCWhawvrQmdrP9PijYhx-7" style="edgeStyle=orthogonalEdgeStyle;rounded=0;orthogonalLoop=1;jettySize=auto;html=1;exitX=0.25;exitY=1;exitDx=0;exitDy=0;exitPerimeter=0;entryX=0.25;entryY=0;entryDx=0;entryDy=0;entryPerimeter=0;" parent="1" source="FC1DLJF5XPwhJtV18IFF-3" target="dybIU9X_b_QxGpaB46xL-31" edge="1">
          <mxGeometry relative="1" as="geometry" />
        </mxCell>
        <mxCell id="wCWhawvrQmdrP9PijYhx-8" value="Kafka Native Protocol (TCP)&lt;div&gt;Запрос на оплату&lt;/div&gt;" style="edgeLabel;html=1;align=center;verticalAlign=middle;resizable=0;points=[];" parent="wCWhawvrQmdrP9PijYhx-7" vertex="1" connectable="0">
          <mxGeometry x="0.1956" y="-3" relative="1" as="geometry">
            <mxPoint x="-9" y="-22" as="offset" />
          </mxGeometry>
        </mxCell>
        <mxCell id="wCWhawvrQmdrP9PijYhx-9" style="edgeStyle=orthogonalEdgeStyle;rounded=0;orthogonalLoop=1;jettySize=auto;html=1;exitX=0.75;exitY=0;exitDx=0;exitDy=0;exitPerimeter=0;entryX=0.75;entryY=1;entryDx=0;entryDy=0;entryPerimeter=0;" parent="1" source="dybIU9X_b_QxGpaB46xL-31" target="FC1DLJF5XPwhJtV18IFF-3" edge="1">
          <mxGeometry relative="1" as="geometry" />
        </mxCell>
        <mxCell id="wCWhawvrQmdrP9PijYhx-10" value="Kafka Native Protocol (TCP)&lt;div&gt;Ответ по оплате&lt;/div&gt;" style="edgeLabel;html=1;align=center;verticalAlign=middle;resizable=0;points=[];" parent="wCWhawvrQmdrP9PijYhx-9" vertex="1" connectable="0">
          <mxGeometry x="-0.1939" y="-1" relative="1" as="geometry">
            <mxPoint x="10" y="-21" as="offset" />
          </mxGeometry>
        </mxCell>
        <mxCell id="wCWhawvrQmdrP9PijYhx-11" style="edgeStyle=orthogonalEdgeStyle;rounded=0;orthogonalLoop=1;jettySize=auto;html=1;exitX=1;exitY=0.5;exitDx=0;exitDy=0;exitPerimeter=0;entryX=0.5;entryY=0;entryDx=0;entryDy=0;entryPerimeter=0;" parent="1" source="9-r7pxpzZl9MhB8DkIxH-1" target="dybIU9X_b_QxGpaB46xL-47" edge="1">
          <mxGeometry relative="1" as="geometry" />
        </mxCell>
        <mxCell id="wCWhawvrQmdrP9PijYhx-12" value="Kafka Native Protocol (TCP)&lt;div&gt;Отправка email&lt;/div&gt;" style="edgeLabel;html=1;align=center;verticalAlign=middle;resizable=0;points=[];" parent="wCWhawvrQmdrP9PijYhx-11" vertex="1" connectable="0">
          <mxGeometry x="-0.0085" y="-4" relative="1" as="geometry">
            <mxPoint x="6" y="90" as="offset" />
          </mxGeometry>
        </mxCell>
        <object placeholders="1" c4Name="Брокер" c4Type="Container" c4Technology="Apache Kafka" c4Description="Очередь на отправку уведомлений" label="&lt;font style=&quot;font-size: 16px&quot;&gt;&lt;b&gt;%c4Name%&lt;/b&gt;&lt;/font&gt;&lt;div&gt;[%c4Type%:&amp;nbsp;%c4Technology%]&lt;/div&gt;&lt;br&gt;&lt;div&gt;&lt;font style=&quot;font-size: 11px&quot;&gt;&lt;font color=&quot;#E6E6E6&quot;&gt;%c4Description%&lt;/font&gt;&lt;/div&gt;" id="9-r7pxpzZl9MhB8DkIxH-1">
          <mxCell style="shape=cylinder3;size=15;direction=south;whiteSpace=wrap;html=1;boundedLbl=1;rounded=0;labelBackgroundColor=none;fillColor=#23A2D9;fontSize=12;fontColor=#ffffff;align=center;strokeColor=#0E7DAD;metaEdit=1;points=[[0.5,0,0],[1,0.25,0],[1,0.5,0],[1,0.75,0],[0.5,1,0],[0,0.75,0],[0,0.5,0],[0,0.25,0]];resizable=0;" parent="1" vertex="1">
            <mxGeometry x="1052.92" y="1515" width="240" height="120" as="geometry" />
          </mxCell>
        </object>
        <mxCell id="9-r7pxpzZl9MhB8DkIxH-20" style="edgeStyle=orthogonalEdgeStyle;rounded=0;orthogonalLoop=1;jettySize=auto;html=1;exitX=0;exitY=0.5;exitDx=0;exitDy=0;exitPerimeter=0;entryX=1;entryY=0.5;entryDx=0;entryDy=0;entryPerimeter=0;" parent="1" source="dybIU9X_b_QxGpaB46xL-17" target="dybIU9X_b_QxGpaB46xL-65" edge="1">
          <mxGeometry relative="1" as="geometry">
            <mxPoint x="473.9200000000001" y="1064" as="targetPoint" />
          </mxGeometry>
        </mxCell>
        <mxCell id="E6AMx3-ogNpxGLGxgDXm-15" value="&lt;div&gt;OLAP&lt;/div&gt;Несрочные отчёты" style="edgeLabel;html=1;align=center;verticalAlign=middle;resizable=0;points=[];" parent="9-r7pxpzZl9MhB8DkIxH-20" vertex="1" connectable="0">
          <mxGeometry x="0.1171" y="-2" relative="1" as="geometry">
            <mxPoint x="-16" y="1" as="offset" />
          </mxGeometry>
        </mxCell>
        <mxCell id="9-r7pxpzZl9MhB8DkIxH-26" style="edgeStyle=orthogonalEdgeStyle;rounded=0;orthogonalLoop=1;jettySize=auto;html=1;exitX=0.5;exitY=1;exitDx=0;exitDy=0;exitPerimeter=0;entryX=0;entryY=0.25;entryDx=0;entryDy=0;entryPerimeter=0;" parent="1" source="dybIU9X_b_QxGpaB46xL-95" target="9-r7pxpzZl9MhB8DkIxH-1" edge="1">
          <mxGeometry relative="1" as="geometry">
            <Array as="points">
              <mxPoint x="1573.92" y="1473" />
              <mxPoint x="1232.92" y="1473" />
            </Array>
          </mxGeometry>
        </mxCell>
        <mxCell id="9-r7pxpzZl9MhB8DkIxH-27" value="&lt;div&gt;Kafka Native Protocol (TCP)&lt;/div&gt;Рассылка уведомлений" style="edgeLabel;html=1;align=center;verticalAlign=middle;resizable=0;points=[];" parent="9-r7pxpzZl9MhB8DkIxH-26" vertex="1" connectable="0">
          <mxGeometry x="0.147" y="-2" relative="1" as="geometry">
            <mxPoint x="-11" as="offset" />
          </mxGeometry>
        </mxCell>
        <mxCell id="E6AMx3-ogNpxGLGxgDXm-1" style="edgeStyle=orthogonalEdgeStyle;rounded=0;orthogonalLoop=1;jettySize=auto;html=1;exitX=0.5;exitY=0;exitDx=0;exitDy=0;exitPerimeter=0;" parent="1" source="FC1DLJF5XPwhJtV18IFF-3" target="dybIU9X_b_QxGpaB46xL-113" edge="1">
          <mxGeometry relative="1" as="geometry" />
        </mxCell>
        <mxCell id="E6AMx3-ogNpxGLGxgDXm-2" value="Kafka Native Protocol (TCP)&lt;div&gt;Передача запроса&lt;/div&gt;&lt;div&gt;на оплату&lt;/div&gt;" style="edgeLabel;html=1;align=center;verticalAlign=middle;resizable=0;points=[];" parent="E6AMx3-ogNpxGLGxgDXm-1" vertex="1" connectable="0">
          <mxGeometry x="-0.0886" y="2" relative="1" as="geometry">
            <mxPoint x="2" as="offset" />
          </mxGeometry>
        </mxCell>
        <object placeholders="1" c4Name="Платёжный шлюз" c4Type="Component" c4Technology="Spring Service" c4Description="Взаимодействие с системами интернет-платежей" label="&lt;font style=&quot;font-size: 16px&quot;&gt;&lt;b&gt;%c4Name%&lt;/b&gt;&lt;/font&gt;&lt;div&gt;[%c4Type%: %c4Technology%]&lt;/div&gt;&lt;br&gt;&lt;div&gt;&lt;font style=&quot;font-size: 11px&quot;&gt;%c4Description%&lt;/font&gt;&lt;/div&gt;" id="FC1DLJF5XPwhJtV18IFF-3">
          <mxCell style="rounded=1;whiteSpace=wrap;html=1;labelBackgroundColor=none;fillColor=#63BEF2;fontColor=#ffffff;align=center;arcSize=6;strokeColor=#2086C9;metaEdit=1;resizable=0;points=[[0.25,0,0],[0.5,0,0],[0.75,0,0],[1,0.25,0],[1,0.5,0],[1,0.75,0],[0.75,1,0],[0.5,1,0],[0.25,1,0],[0,0.75,0],[0,0.5,0],[0,0.25,0]];" parent="1" vertex="1">
            <mxGeometry x="635.9200000000001" y="1713" width="240" height="120" as="geometry" />
          </mxCell>
        </object>
        <mxCell id="E6AMx3-ogNpxGLGxgDXm-9" style="edgeStyle=orthogonalEdgeStyle;rounded=0;orthogonalLoop=1;jettySize=auto;html=1;entryX=0;entryY=0.75;entryDx=0;entryDy=0;entryPerimeter=0;exitX=0.5;exitY=1;exitDx=0;exitDy=0;exitPerimeter=0;" parent="1" source="dybIU9X_b_QxGpaB46xL-17" target="9-r7pxpzZl9MhB8DkIxH-1" edge="1">
          <mxGeometry relative="1" as="geometry">
            <Array as="points">
              <mxPoint x="776.9200000000001" y="1473" />
              <mxPoint x="1112.92" y="1473" />
            </Array>
          </mxGeometry>
        </mxCell>
        <mxCell id="E6AMx3-ogNpxGLGxgDXm-10" value="&lt;div&gt;Kafka Native Protocol (TCP)&lt;/div&gt;Асинхронная запись отчётов" style="edgeLabel;html=1;align=center;verticalAlign=middle;resizable=0;points=[];" parent="E6AMx3-ogNpxGLGxgDXm-9" vertex="1" connectable="0">
          <mxGeometry x="0.7316" y="-5" relative="1" as="geometry">
            <mxPoint x="-127" y="-7" as="offset" />
          </mxGeometry>
        </mxCell>
        <mxCell id="slTmogsQ5nZODz0ifdsU-11" style="edgeStyle=orthogonalEdgeStyle;rounded=0;orthogonalLoop=1;jettySize=auto;html=1;exitX=0;exitY=0.75;exitDx=0;exitDy=0;exitPerimeter=0;entryX=0.5;entryY=1;entryDx=0;entryDy=0;entryPerimeter=0;" parent="1" source="3iiHtszf_FVkRYXRa1Re-1" target="9-r7pxpzZl9MhB8DkIxH-1" edge="1">
          <mxGeometry relative="1" as="geometry">
            <Array as="points">
              <mxPoint x="612.9200000000001" y="1076" />
              <mxPoint x="612.9200000000001" y="1575" />
            </Array>
          </mxGeometry>
        </mxCell>
        <mxCell id="slTmogsQ5nZODz0ifdsU-12" value="Kafka Native Protocol (TCP)&lt;div&gt;Уведомления о новых сообщениях&lt;/div&gt;" style="edgeLabel;html=1;align=center;verticalAlign=middle;resizable=0;points=[];" parent="slTmogsQ5nZODz0ifdsU-11" vertex="1" connectable="0">
          <mxGeometry x="0.6281" relative="1" as="geometry">
            <mxPoint x="-42" as="offset" />
          </mxGeometry>
        </mxCell>
        <object placeholders="1" c4Name="Сервис чатов" c4Type="Component" c4Technology="Spring Service" c4Description="Общение Пользователей" label="&lt;font style=&quot;font-size: 16px&quot;&gt;&lt;b&gt;%c4Name%&lt;/b&gt;&lt;/font&gt;&lt;div&gt;[%c4Type%: %c4Technology%]&lt;/div&gt;&lt;br&gt;&lt;div&gt;&lt;font style=&quot;font-size: 11px&quot;&gt;%c4Description%&lt;/font&gt;&lt;/div&gt;" id="3iiHtszf_FVkRYXRa1Re-1">
          <mxCell style="rounded=1;whiteSpace=wrap;html=1;labelBackgroundColor=none;fillColor=#63BEF2;fontColor=#ffffff;align=center;arcSize=6;strokeColor=#2086C9;metaEdit=1;resizable=0;points=[[0.25,0,0],[0.5,0,0],[0.75,0,0],[1,0.25,0],[1,0.5,0],[1,0.75,0],[0.75,1,0],[0.5,1,0],[0.25,1,0],[0,0.75,0],[0,0.5,0],[0,0.25,0]];" parent="1" vertex="1">
            <mxGeometry x="656.9200000000001" y="986" width="240" height="120" as="geometry" />
          </mxCell>
        </object>
        <object placeholders="1" c4Name="Сервис отзывов" c4Type="Component" c4Technology="Spring Service" c4Description="Сбор, хранение и анализ отзывов о специалистах" label="&lt;font style=&quot;font-size: 16px&quot;&gt;&lt;b&gt;%c4Name%&lt;/b&gt;&lt;/font&gt;&lt;div&gt;[%c4Type%: %c4Technology%]&lt;/div&gt;&lt;br&gt;&lt;div&gt;&lt;font style=&quot;font-size: 11px&quot;&gt;%c4Description%&lt;/font&gt;&lt;/div&gt;" id="3iiHtszf_FVkRYXRa1Re-2">
          <mxCell style="rounded=1;whiteSpace=wrap;html=1;labelBackgroundColor=none;fillColor=#63BEF2;fontColor=#ffffff;align=center;arcSize=6;strokeColor=#2086C9;metaEdit=1;resizable=0;points=[[0.25,0,0],[0.5,0,0],[0.75,0,0],[1,0.25,0],[1,0.5,0],[1,0.75,0],[0.75,1,0],[0.5,1,0],[0.25,1,0],[0,0.75,0],[0,0.5,0],[0,0.25,0]];" parent="1" vertex="1">
            <mxGeometry x="1453.92" y="1146" width="240" height="120" as="geometry" />
          </mxCell>
        </object>
        <object placeholders="1" c4Name="Платформа конференц-связи" c4Type="Software System" c4Description="Проведение онлайн-консультаций" label="&lt;font style=&quot;font-size: 16px&quot;&gt;&lt;b&gt;%c4Name%&lt;/b&gt;&lt;/font&gt;&lt;div&gt;[%c4Type%]&lt;/div&gt;&lt;br&gt;&lt;div&gt;&lt;font style=&quot;font-size: 11px&quot;&gt;&lt;font color=&quot;#cccccc&quot;&gt;%c4Description%&lt;/font&gt;&lt;/div&gt;" id="slTmogsQ5nZODz0ifdsU-1">
          <mxCell style="rounded=1;whiteSpace=wrap;html=1;labelBackgroundColor=none;fillColor=#8C8496;fontColor=#ffffff;align=center;arcSize=10;strokeColor=#736782;metaEdit=1;resizable=0;points=[[0.25,0,0],[0.5,0,0],[0.75,0,0],[1,0.25,0],[1,0.5,0],[1,0.75,0],[0.75,1,0],[0.5,1,0],[0.25,1,0],[0,0.75,0],[0,0.5,0],[0,0.25,0]];" parent="1" vertex="1">
            <mxGeometry x="119.92000000000007" y="1942" width="240" height="120" as="geometry" />
          </mxCell>
        </object>
        <object placeholders="1" c4Name="Сервис планирования событий" c4Type="Software System" c4Description="Запись на консультации" label="&lt;font style=&quot;font-size: 16px&quot;&gt;&lt;b&gt;%c4Name%&lt;/b&gt;&lt;/font&gt;&lt;div&gt;[%c4Type%]&lt;/div&gt;&lt;br&gt;&lt;div&gt;&lt;font style=&quot;font-size: 11px&quot;&gt;&lt;font color=&quot;#cccccc&quot;&gt;%c4Description%&lt;/font&gt;&lt;/div&gt;" id="slTmogsQ5nZODz0ifdsU-3">
          <mxCell style="rounded=1;whiteSpace=wrap;html=1;labelBackgroundColor=none;fillColor=#8C8496;fontColor=#ffffff;align=center;arcSize=10;strokeColor=#736782;metaEdit=1;resizable=0;points=[[0.25,0,0],[0.5,0,0],[0.75,0,0],[1,0.25,0],[1,0.5,0],[1,0.75,0],[0.75,1,0],[0.5,1,0],[0.25,1,0],[0,0.75,0],[0,0.5,0],[0,0.25,0]];" parent="1" vertex="1">
            <mxGeometry x="378.9200000000001" y="1942" width="240" height="120" as="geometry" />
          </mxCell>
        </object>
        <object placeholders="1" c4Name="Kibana" c4Type="Container: UI/Monitoring Tool" c4Description="Логирование API" label="&lt;font style=&quot;font-size: 16px&quot;&gt;&lt;b&gt;%c4Name%&lt;/b&gt;&lt;/font&gt;&lt;div&gt;[%c4Type%]&lt;/div&gt;&lt;br&gt;&lt;div&gt;&lt;font style=&quot;font-size: 11px&quot;&gt;&lt;font color=&quot;#cccccc&quot;&gt;%c4Description%&lt;/font&gt;&lt;/div&gt;" id="slTmogsQ5nZODz0ifdsU-4">
          <mxCell style="rounded=1;whiteSpace=wrap;html=1;labelBackgroundColor=none;fillColor=#8C8496;fontColor=#ffffff;align=center;arcSize=10;strokeColor=#736782;metaEdit=1;resizable=0;points=[[0.25,0,0],[0.5,0,0],[0.75,0,0],[1,0.25,0],[1,0.5,0],[1,0.75,0],[0.75,1,0],[0.5,1,0],[0.25,1,0],[0,0.75,0],[0,0.5,0],[0,0.25,0]];" parent="1" vertex="1">
            <mxGeometry x="1453.92" y="1941" width="240" height="120" as="geometry" />
          </mxCell>
        </object>
        <mxCell id="slTmogsQ5nZODz0ifdsU-6" style="edgeStyle=orthogonalEdgeStyle;rounded=0;orthogonalLoop=1;jettySize=auto;html=1;entryX=1;entryY=0.5;entryDx=0;entryDy=0;entryPerimeter=0;exitX=0.065;exitY=0.632;exitDx=0;exitDy=0;exitPerimeter=0;" parent="1" source="IgIEpAihZ9Cb06VBUbrS-255" target="3iiHtszf_FVkRYXRa1Re-1" edge="1">
          <mxGeometry relative="1" as="geometry">
            <Array as="points">
              <mxPoint x="1052.92" y="711" />
              <mxPoint x="1052.92" y="1046" />
            </Array>
          </mxGeometry>
        </mxCell>
        <mxCell id="slTmogsQ5nZODz0ifdsU-23" value="REST API&lt;div&gt;Переписка Пользователей&lt;/div&gt;" style="edgeLabel;html=1;align=center;verticalAlign=middle;resizable=0;points=[];" parent="slTmogsQ5nZODz0ifdsU-6" vertex="1" connectable="0">
          <mxGeometry x="0.7373" y="-6" relative="1" as="geometry">
            <mxPoint x="16" y="-11" as="offset" />
          </mxGeometry>
        </mxCell>
        <object placeholders="1" c4Type="БД" c4Container="Container" c4Technology="PostgreSQL" c4Description="БД чатов" label="&lt;font style=&quot;font-size: 16px&quot;&gt;&lt;b&gt;%c4Type%&lt;/b&gt;&lt;/font&gt;&lt;div&gt;[%c4Container%:&amp;nbsp;%c4Technology%]&lt;/div&gt;&lt;br&gt;&lt;div&gt;&lt;font style=&quot;font-size: 11px&quot;&gt;&lt;font color=&quot;#E6E6E6&quot;&gt;%c4Description%&lt;/font&gt;&lt;/div&gt;" id="slTmogsQ5nZODz0ifdsU-13">
          <mxCell style="shape=cylinder3;size=15;whiteSpace=wrap;html=1;boundedLbl=1;rounded=0;labelBackgroundColor=none;fillColor=#23A2D9;fontSize=12;fontColor=#ffffff;align=center;strokeColor=#0E7DAD;metaEdit=1;points=[[0.5,0,0],[1,0.25,0],[1,0.5,0],[1,0.75,0],[0.5,1,0],[0,0.75,0],[0,0.5,0],[0,0.25,0]];resizable=0;" parent="1" vertex="1">
            <mxGeometry x="159.92000000000007" y="986" width="240" height="120" as="geometry" />
          </mxCell>
        </object>
        <mxCell id="slTmogsQ5nZODz0ifdsU-14" style="edgeStyle=orthogonalEdgeStyle;rounded=0;orthogonalLoop=1;jettySize=auto;html=1;entryX=1;entryY=0.5;entryDx=0;entryDy=0;entryPerimeter=0;" parent="1" source="3iiHtszf_FVkRYXRa1Re-1" target="slTmogsQ5nZODz0ifdsU-13" edge="1">
          <mxGeometry relative="1" as="geometry" />
        </mxCell>
        <mxCell id="slTmogsQ5nZODz0ifdsU-16" value="ODBC&lt;div&gt;Сохранение истории переписки&lt;/div&gt;" style="edgeLabel;html=1;align=center;verticalAlign=middle;resizable=0;points=[];" parent="slTmogsQ5nZODz0ifdsU-14" vertex="1" connectable="0">
          <mxGeometry x="0.2498" y="-5" relative="1" as="geometry">
            <mxPoint x="8" y="3" as="offset" />
          </mxGeometry>
        </mxCell>
        <object placeholders="1" c4Type="БД" c4Container="Container" c4Technology="PostgreSQL" c4Description="БД консультаций" label="&lt;font style=&quot;font-size: 16px&quot;&gt;&lt;b&gt;%c4Type%&lt;/b&gt;&lt;/font&gt;&lt;div&gt;[%c4Container%:&amp;nbsp;%c4Technology%]&lt;/div&gt;&lt;br&gt;&lt;div&gt;&lt;font style=&quot;font-size: 11px&quot;&gt;&lt;font color=&quot;#E6E6E6&quot;&gt;%c4Description%&lt;/font&gt;&lt;/div&gt;" id="slTmogsQ5nZODz0ifdsU-19">
          <mxCell style="shape=cylinder3;size=15;whiteSpace=wrap;html=1;boundedLbl=1;rounded=0;labelBackgroundColor=none;fillColor=#23A2D9;fontSize=12;fontColor=#ffffff;align=center;strokeColor=#0E7DAD;metaEdit=1;points=[[0.5,0,0],[1,0.25,0],[1,0.5,0],[1,0.75,0],[0.5,1,0],[0,0.75,0],[0,0.5,0],[0,0.25,0]];resizable=0;" parent="1" vertex="1">
            <mxGeometry x="159.92000000000007" y="1146" width="240" height="120" as="geometry" />
          </mxCell>
        </object>
        <mxCell id="slTmogsQ5nZODz0ifdsU-20" style="edgeStyle=orthogonalEdgeStyle;rounded=0;orthogonalLoop=1;jettySize=auto;html=1;entryX=1;entryY=0.5;entryDx=0;entryDy=0;entryPerimeter=0;" parent="1" source="dybIU9X_b_QxGpaB46xL-15" target="slTmogsQ5nZODz0ifdsU-19" edge="1">
          <mxGeometry relative="1" as="geometry" />
        </mxCell>
        <mxCell id="slTmogsQ5nZODz0ifdsU-22" value="ODBC&lt;div&gt;Записи на консультации&lt;/div&gt;" style="edgeLabel;html=1;align=center;verticalAlign=middle;resizable=0;points=[];" parent="slTmogsQ5nZODz0ifdsU-20" vertex="1" connectable="0">
          <mxGeometry x="0.0041" y="3" relative="1" as="geometry">
            <mxPoint x="-18" as="offset" />
          </mxGeometry>
        </mxCell>
        <object placeholders="1" c4Type="БД" c4Container="Container" c4Technology="PostgreSQL" c4Description="БД отзывов" label="&lt;font style=&quot;font-size: 16px&quot;&gt;&lt;b&gt;%c4Type%&lt;/b&gt;&lt;/font&gt;&lt;div&gt;[%c4Container%:&amp;nbsp;%c4Technology%]&lt;/div&gt;&lt;br&gt;&lt;div&gt;&lt;font style=&quot;font-size: 11px&quot;&gt;&lt;font color=&quot;#E6E6E6&quot;&gt;%c4Description%&lt;/font&gt;&lt;/div&gt;" id="slTmogsQ5nZODz0ifdsU-26">
          <mxCell style="shape=cylinder3;size=15;whiteSpace=wrap;html=1;boundedLbl=1;rounded=0;labelBackgroundColor=none;fillColor=#23A2D9;fontSize=12;fontColor=#ffffff;align=center;strokeColor=#0E7DAD;metaEdit=1;points=[[0.5,0,0],[1,0.25,0],[1,0.5,0],[1,0.75,0],[0.5,1,0],[0,0.75,0],[0,0.5,0],[0,0.25,0]];resizable=0;" parent="1" vertex="1">
            <mxGeometry x="1957.92" y="1146" width="240" height="120" as="geometry" />
          </mxCell>
        </object>
        <mxCell id="slTmogsQ5nZODz0ifdsU-27" style="edgeStyle=orthogonalEdgeStyle;rounded=0;orthogonalLoop=1;jettySize=auto;html=1;exitX=1;exitY=0.5;exitDx=0;exitDy=0;exitPerimeter=0;entryX=0;entryY=0.5;entryDx=0;entryDy=0;entryPerimeter=0;" parent="1" source="3iiHtszf_FVkRYXRa1Re-2" target="slTmogsQ5nZODz0ifdsU-26" edge="1">
          <mxGeometry relative="1" as="geometry" />
        </mxCell>
        <mxCell id="slTmogsQ5nZODz0ifdsU-28" value="ODBC&lt;div&gt;Сбор отзывов и формирование&lt;/div&gt;&lt;div&gt;рейтинга Специалистов&lt;/div&gt;" style="edgeLabel;html=1;align=center;verticalAlign=middle;resizable=0;points=[];" parent="slTmogsQ5nZODz0ifdsU-27" vertex="1" connectable="0">
          <mxGeometry x="-0.0413" y="-1" relative="1" as="geometry">
            <mxPoint x="30" as="offset" />
          </mxGeometry>
        </mxCell>
        <mxCell id="slTmogsQ5nZODz0ifdsU-29" style="edgeStyle=orthogonalEdgeStyle;rounded=0;orthogonalLoop=1;jettySize=auto;html=1;exitX=1;exitY=0.75;exitDx=0;exitDy=0;exitPerimeter=0;entryX=0.189;entryY=0.012;entryDx=0;entryDy=0;entryPerimeter=0;" parent="1" source="3iiHtszf_FVkRYXRa1Re-2" target="9-r7pxpzZl9MhB8DkIxH-1" edge="1">
          <mxGeometry relative="1" as="geometry">
            <Array as="points">
              <mxPoint x="1719.92" y="1236" />
              <mxPoint x="1719.92" y="1538" />
            </Array>
          </mxGeometry>
        </mxCell>
        <mxCell id="slTmogsQ5nZODz0ifdsU-30" value="Kafka Native Protocol (TCP)&lt;div&gt;Просьбы оставить отзыв&lt;/div&gt;" style="edgeLabel;html=1;align=center;verticalAlign=middle;resizable=0;points=[];" parent="slTmogsQ5nZODz0ifdsU-29" vertex="1" connectable="0">
          <mxGeometry x="0.7574" relative="1" as="geometry">
            <mxPoint as="offset" />
          </mxGeometry>
        </mxCell>
        <mxCell id="slTmogsQ5nZODz0ifdsU-31" style="edgeStyle=orthogonalEdgeStyle;rounded=0;orthogonalLoop=1;jettySize=auto;html=1;exitX=0.5;exitY=0;exitDx=0;exitDy=0;exitPerimeter=0;entryX=0.5;entryY=0;entryDx=0;entryDy=0;entryPerimeter=0;" parent="1" source="dybIU9X_b_QxGpaB46xL-15" target="slTmogsQ5nZODz0ifdsU-3" edge="1">
          <mxGeometry relative="1" as="geometry">
            <Array as="points">
              <mxPoint x="777" y="1123" />
              <mxPoint x="120" y="1123" />
              <mxPoint x="120" y="1720" />
              <mxPoint x="499" y="1720" />
            </Array>
          </mxGeometry>
        </mxCell>
        <mxCell id="slTmogsQ5nZODz0ifdsU-32" value="JSON/HTTPS&lt;div&gt;Время работы и&lt;/div&gt;&lt;div&gt;запланированные консультации&lt;/div&gt;" style="edgeLabel;html=1;align=center;verticalAlign=middle;resizable=0;points=[];" parent="slTmogsQ5nZODz0ifdsU-31" vertex="1" connectable="0">
          <mxGeometry x="0.727" y="5" relative="1" as="geometry">
            <mxPoint x="42" y="149" as="offset" />
          </mxGeometry>
        </mxCell>
        <mxCell id="slTmogsQ5nZODz0ifdsU-43" style="edgeStyle=orthogonalEdgeStyle;rounded=0;orthogonalLoop=1;jettySize=auto;html=1;exitX=0.5;exitY=1;exitDx=0;exitDy=0;exitPerimeter=0;entryX=1;entryY=0.75;entryDx=0;entryDy=0;entryPerimeter=0;" parent="1" source="slTmogsQ5nZODz0ifdsU-1" target="9-r7pxpzZl9MhB8DkIxH-1" edge="1">
          <mxGeometry relative="1" as="geometry">
            <Array as="points">
              <mxPoint x="240" y="2073" />
              <mxPoint x="1000" y="2073" />
              <mxPoint x="1000" y="1660" />
              <mxPoint x="1113" y="1660" />
            </Array>
          </mxGeometry>
        </mxCell>
        <mxCell id="slTmogsQ5nZODz0ifdsU-44" value="Kafka Native Protocol (TCP)&lt;div&gt;Ссылка на конференцию&lt;/div&gt;" style="edgeLabel;html=1;align=center;verticalAlign=middle;resizable=0;points=[];" parent="slTmogsQ5nZODz0ifdsU-43" vertex="1" connectable="0">
          <mxGeometry x="0.5246" y="1" relative="1" as="geometry">
            <mxPoint y="33" as="offset" />
          </mxGeometry>
        </mxCell>
        <mxCell id="slTmogsQ5nZODz0ifdsU-48" style="edgeStyle=orthogonalEdgeStyle;rounded=0;orthogonalLoop=1;jettySize=auto;html=1;exitX=0.5;exitY=1;exitDx=0;exitDy=0;exitPerimeter=0;" parent="1" source="slTmogsQ5nZODz0ifdsU-46" target="slTmogsQ5nZODz0ifdsU-4" edge="1">
          <mxGeometry relative="1" as="geometry" />
        </mxCell>
        <mxCell id="slTmogsQ5nZODz0ifdsU-50" value="HTTPS&lt;div&gt;Логи&lt;/div&gt;" style="edgeLabel;html=1;align=center;verticalAlign=middle;resizable=0;points=[];" parent="slTmogsQ5nZODz0ifdsU-48" vertex="1" connectable="0">
          <mxGeometry x="-0.1514" y="1" relative="1" as="geometry">
            <mxPoint y="-3" as="offset" />
          </mxGeometry>
        </mxCell>
        <object placeholders="1" c4Name="Elasticsearch" c4Type="Container" c4Technology="ElasticSearch" c4Description="Хранилище логов" label="&lt;font style=&quot;font-size: 16px&quot;&gt;&lt;b&gt;%c4Name%&lt;/b&gt;&lt;/font&gt;&lt;div&gt;[%c4Type%: %c4Technology%]&lt;/div&gt;&lt;br&gt;&lt;div&gt;&lt;font style=&quot;font-size: 11px&quot;&gt;&lt;font color=&quot;#E6E6E6&quot;&gt;%c4Description%&lt;/font&gt;&lt;/div&gt;" id="slTmogsQ5nZODz0ifdsU-46">
          <mxCell style="rounded=1;whiteSpace=wrap;html=1;fontSize=11;labelBackgroundColor=none;fillColor=#23A2D9;fontColor=#ffffff;align=center;arcSize=10;strokeColor=#0E7DAD;metaEdit=1;resizable=0;points=[[0.25,0,0],[0.5,0,0],[0.75,0,0],[1,0.25,0],[1,0.5,0],[1,0.75,0],[0.75,1,0],[0.5,1,0],[0.25,1,0],[0,0.75,0],[0,0.5,0],[0,0.25,0]];" parent="1" vertex="1">
            <mxGeometry x="1453.92" y="1713" width="240" height="120" as="geometry" />
          </mxCell>
        </object>
        <mxCell id="ge_QwHgeWHwvMYCNkkmz-14" value="&lt;font style=&quot;font-size: 30px;&quot;&gt;&lt;b&gt;Containers&lt;/b&gt;&lt;/font&gt;" style="text;html=1;align=center;verticalAlign=middle;whiteSpace=wrap;rounded=0;" vertex="1" parent="1">
          <mxGeometry x="-1854.1599999999999" y="48" width="62" height="30" as="geometry" />
        </mxCell>
        <mxCell id="ge_QwHgeWHwvMYCNkkmz-15" style="edgeStyle=orthogonalEdgeStyle;rounded=0;orthogonalLoop=1;jettySize=auto;html=1;exitX=0.5;exitY=1;exitDx=0;exitDy=0;exitPerimeter=0;entryX=0.75;entryY=0;entryDx=0;entryDy=0;entryPerimeter=0;" edge="1" parent="1" source="ge_QwHgeWHwvMYCNkkmz-17" target="ge_QwHgeWHwvMYCNkkmz-125">
          <mxGeometry relative="1" as="geometry">
            <Array as="points">
              <mxPoint x="-816" y="574" />
              <mxPoint x="-992" y="574" />
            </Array>
            <mxPoint x="-1013.5600000000004" y="614.3399999999997" as="targetPoint" />
          </mxGeometry>
        </mxCell>
        <mxCell id="ge_QwHgeWHwvMYCNkkmz-16" value="JSON/HTTPS&lt;div&gt;Контент, статистика,&lt;/div&gt;&lt;div&gt;чаты с Пользователями&lt;/div&gt;" style="edgeLabel;html=1;align=center;verticalAlign=middle;resizable=0;points=[];" vertex="1" connectable="0" parent="ge_QwHgeWHwvMYCNkkmz-15">
          <mxGeometry x="-0.1305" y="-6" relative="1" as="geometry">
            <mxPoint x="-6" y="17" as="offset" />
          </mxGeometry>
        </mxCell>
        <object placeholders="1" c4Name="Админ-панель" c4Type="Container" c4Technology="JavaScript, OpenCart" c4Description="Графическая панель управления приложением" label="&lt;font style=&quot;font-size: 16px&quot;&gt;&lt;b&gt;%c4Name%&lt;/b&gt;&lt;/font&gt;&lt;div&gt;[%c4Type%:&amp;nbsp;%c4Technology%]&lt;/div&gt;&lt;br&gt;&lt;div&gt;&lt;font style=&quot;font-size: 11px&quot;&gt;&lt;font color=&quot;#E6E6E6&quot;&gt;%c4Description%&lt;/font&gt;&lt;/div&gt;" id="ge_QwHgeWHwvMYCNkkmz-17">
          <mxCell style="shape=mxgraph.c4.webBrowserContainer2;whiteSpace=wrap;html=1;boundedLbl=1;rounded=0;labelBackgroundColor=none;strokeColor=#118ACD;fillColor=#23A2D9;strokeColor=#118ACD;strokeColor2=#0E7DAD;fontSize=12;fontColor=#ffffff;align=center;metaEdit=1;points=[[0.5,0,0],[1,0.25,0],[1,0.5,0],[1,0.75,0],[0.5,1,0],[0,0.75,0],[0,0.5,0],[0,0.25,0]];resizable=0;" vertex="1" parent="1">
            <mxGeometry x="-936.1599999999999" y="384" width="240" height="160" as="geometry" />
          </mxCell>
        </object>
        <object placeholders="1" c4Name="Пользователь" c4Type="Person" c4Description="Исследователь или Испытуемый" label="&lt;font style=&quot;font-size: 16px&quot;&gt;&lt;b&gt;%c4Name%&lt;/b&gt;&lt;/font&gt;&lt;div&gt;[%c4Type%]&lt;/div&gt;&lt;br&gt;&lt;div&gt;&lt;font style=&quot;font-size: 11px&quot;&gt;&lt;font color=&quot;#cccccc&quot;&gt;%c4Description%&lt;/font&gt;&lt;/div&gt;" id="ge_QwHgeWHwvMYCNkkmz-18">
          <mxCell style="html=1;fontSize=11;dashed=0;whiteSpace=wrap;fillColor=#083F75;strokeColor=#4D4D4D;fontColor=#ffffff;shape=mxgraph.c4.person2;align=center;metaEdit=1;points=[[0.5,0,0],[1,0.5,0],[1,0.75,0],[0.75,1,0],[0.5,1,0],[0.25,1,0],[0,0.75,0],[0,0.5,0]];resizable=0;" vertex="1" parent="1">
            <mxGeometry x="-1404.1599999999999" y="84" width="200" height="180" as="geometry" />
          </mxCell>
        </object>
        <mxCell id="ge_QwHgeWHwvMYCNkkmz-19" style="edgeStyle=orthogonalEdgeStyle;rounded=0;orthogonalLoop=1;jettySize=auto;html=1;entryX=0.5;entryY=0;entryDx=0;entryDy=0;entryPerimeter=0;exitX=0.5;exitY=1;exitDx=0;exitDy=0;exitPerimeter=0;" edge="1" parent="1" source="ge_QwHgeWHwvMYCNkkmz-21" target="ge_QwHgeWHwvMYCNkkmz-17">
          <mxGeometry relative="1" as="geometry" />
        </mxCell>
        <mxCell id="ge_QwHgeWHwvMYCNkkmz-20" value="&lt;div&gt;Модерация контента,&lt;/div&gt;&lt;div&gt;управление доступом,&lt;/div&gt;&lt;div&gt;анализ статистики, помощь&lt;/div&gt;" style="edgeLabel;html=1;align=center;verticalAlign=middle;resizable=0;points=[];" vertex="1" connectable="0" parent="ge_QwHgeWHwvMYCNkkmz-19">
          <mxGeometry x="0.1633" y="6" relative="1" as="geometry">
            <mxPoint x="-6" y="-11" as="offset" />
          </mxGeometry>
        </mxCell>
        <object placeholders="1" c4Name="Администратор" c4Type="Person" c4Description="Работник сервиса" label="&lt;font style=&quot;font-size: 16px&quot;&gt;&lt;b&gt;%c4Name%&lt;/b&gt;&lt;/font&gt;&lt;div&gt;[%c4Type%]&lt;/div&gt;&lt;br&gt;&lt;div&gt;&lt;font style=&quot;font-size: 11px&quot;&gt;&lt;font color=&quot;#cccccc&quot;&gt;%c4Description%&lt;/font&gt;&lt;/div&gt;" id="ge_QwHgeWHwvMYCNkkmz-21">
          <mxCell style="html=1;fontSize=11;dashed=0;whiteSpace=wrap;fillColor=#083F75;strokeColor=#06315C;fontColor=#ffffff;shape=mxgraph.c4.person2;align=center;metaEdit=1;points=[[0.5,0,0],[1,0.5,0],[1,0.75,0],[0.75,1,0],[0.5,1,0],[0.25,1,0],[0,0.75,0],[0,0.5,0]];resizable=0;" vertex="1" parent="1">
            <mxGeometry x="-916.1599999999999" y="84" width="200" height="180" as="geometry" />
          </mxCell>
        </object>
        <mxCell id="ge_QwHgeWHwvMYCNkkmz-22" style="edgeStyle=orthogonalEdgeStyle;rounded=0;orthogonalLoop=1;jettySize=auto;html=1;entryX=0.5;entryY=0;entryDx=0;entryDy=0;entryPerimeter=0;exitX=0.5;exitY=1;exitDx=0;exitDy=0;exitPerimeter=0;" edge="1" parent="1" source="ge_QwHgeWHwvMYCNkkmz-18" target="ge_QwHgeWHwvMYCNkkmz-24">
          <mxGeometry relative="1" as="geometry">
            <mxPoint x="-1878.1599999999999" y="151" as="sourcePoint" />
            <mxPoint x="-1678.16" y="68" as="targetPoint" />
            <Array as="points">
              <mxPoint x="-1304.1599999999999" y="334" />
              <mxPoint x="-1304.1599999999999" y="334" />
            </Array>
          </mxGeometry>
        </mxCell>
        <mxCell id="ge_QwHgeWHwvMYCNkkmz-23" value="&lt;div&gt;Создание и прохождение тестов,&lt;/div&gt;&lt;div&gt;проведение консультаций&lt;/div&gt;" style="edgeLabel;html=1;align=center;verticalAlign=middle;resizable=0;points=[];" vertex="1" connectable="0" parent="ge_QwHgeWHwvMYCNkkmz-22">
          <mxGeometry x="-0.2367" y="-4" relative="1" as="geometry">
            <mxPoint x="5" y="6" as="offset" />
          </mxGeometry>
        </mxCell>
        <object placeholders="1" c4Name="Веб-интерфейс для пользователей" c4Type="Container" c4Technology="JavaScript" c4Description="Система средств, позволяющая Пользователю взаимодействовать с приложением" label="&lt;font style=&quot;font-size: 16px&quot;&gt;&lt;b&gt;%c4Name%&lt;/b&gt;&lt;/font&gt;&lt;div&gt;[%c4Type%:&amp;nbsp;%c4Technology%]&lt;/div&gt;&lt;br&gt;&lt;div&gt;&lt;font style=&quot;font-size: 11px&quot;&gt;&lt;font color=&quot;#E6E6E6&quot;&gt;%c4Description%&lt;/font&gt;&lt;/div&gt;" id="ge_QwHgeWHwvMYCNkkmz-24">
          <mxCell style="shape=mxgraph.c4.webBrowserContainer2;whiteSpace=wrap;html=1;boundedLbl=1;rounded=0;labelBackgroundColor=none;strokeColor=#118ACD;fillColor=#23A2D9;strokeColor=#118ACD;strokeColor2=#0E7DAD;fontSize=12;fontColor=#ffffff;align=center;metaEdit=1;points=[[0.5,0,0],[1,0.25,0],[1,0.5,0],[1,0.75,0],[0.5,1,0],[0,0.75,0],[0,0.5,0],[0,0.25,0]];resizable=0;" vertex="1" parent="1">
            <mxGeometry x="-1424.1599999999999" y="384" width="240" height="160" as="geometry" />
          </mxCell>
        </object>
        <mxCell id="ge_QwHgeWHwvMYCNkkmz-25" style="edgeStyle=orthogonalEdgeStyle;rounded=0;orthogonalLoop=1;jettySize=auto;html=1;entryX=0.25;entryY=0;entryDx=0;entryDy=0;entryPerimeter=0;exitX=0.5;exitY=1;exitDx=0;exitDy=0;exitPerimeter=0;" edge="1" parent="1" source="ge_QwHgeWHwvMYCNkkmz-24" target="ge_QwHgeWHwvMYCNkkmz-125">
          <mxGeometry relative="1" as="geometry">
            <Array as="points">
              <mxPoint x="-1304" y="574" />
              <mxPoint x="-1112" y="574" />
            </Array>
            <mxPoint x="-1558.1599999999999" y="534" as="sourcePoint" />
            <mxPoint x="-1106.96" y="611.79" as="targetPoint" />
          </mxGeometry>
        </mxCell>
        <mxCell id="ge_QwHgeWHwvMYCNkkmz-26" value="JSON/HTTPS&lt;div&gt;Тесты, консультации&lt;/div&gt;" style="edgeLabel;html=1;align=center;verticalAlign=middle;resizable=0;points=[];" vertex="1" connectable="0" parent="ge_QwHgeWHwvMYCNkkmz-25">
          <mxGeometry x="-0.4846" y="2" relative="1" as="geometry">
            <mxPoint x="53" y="6" as="offset" />
          </mxGeometry>
        </mxCell>
        <object placeholders="1" c4Name="Платёжная система" c4Type="Software System" c4Description="Проведение оплаты по картам или сервис ОПЛАТИ" label="&lt;font style=&quot;font-size: 16px&quot;&gt;&lt;b&gt;%c4Name%&lt;/b&gt;&lt;/font&gt;&lt;div&gt;[%c4Type%]&lt;/div&gt;&lt;br&gt;&lt;div&gt;&lt;font style=&quot;font-size: 11px&quot;&gt;&lt;font color=&quot;#cccccc&quot;&gt;%c4Description%&lt;/font&gt;&lt;/div&gt;" id="ge_QwHgeWHwvMYCNkkmz-43">
          <mxCell style="rounded=1;whiteSpace=wrap;html=1;labelBackgroundColor=none;fillColor=#8C8496;fontColor=#ffffff;align=center;arcSize=10;strokeColor=#736782;metaEdit=1;resizable=0;points=[[0.25,0,0],[0.5,0,0],[0.75,0,0],[1,0.25,0],[1,0.5,0],[1,0.75,0],[0.75,1,0],[0.5,1,0],[0.25,1,0],[0,0.75,0],[0,0.5,0],[0,0.25,0]];" vertex="1" parent="1">
            <mxGeometry x="-1365.9999999999998" y="875" width="240" height="120" as="geometry" />
          </mxCell>
        </object>
        <mxCell id="ge_QwHgeWHwvMYCNkkmz-44" style="edgeStyle=orthogonalEdgeStyle;rounded=0;orthogonalLoop=1;jettySize=auto;html=1;exitX=0.25;exitY=1;exitDx=0;exitDy=0;exitPerimeter=0;entryX=0;entryY=0.5;entryDx=0;entryDy=0;entryPerimeter=0;" edge="1" parent="1" source="ge_QwHgeWHwvMYCNkkmz-48" target="ge_QwHgeWHwvMYCNkkmz-24">
          <mxGeometry relative="1" as="geometry">
            <mxPoint x="-2128.16" y="274" as="targetPoint" />
            <Array as="points">
              <mxPoint x="-919" y="995" />
              <mxPoint x="-919" y="1100" />
              <mxPoint x="-1912" y="1100" />
              <mxPoint x="-1912" y="464" />
            </Array>
          </mxGeometry>
        </mxCell>
        <mxCell id="ge_QwHgeWHwvMYCNkkmz-45" value="SMTP/SMPP&lt;br&gt;Уведомления для Пользователей" style="edgeLabel;html=1;align=center;verticalAlign=middle;resizable=0;points=[];" vertex="1" connectable="0" parent="ge_QwHgeWHwvMYCNkkmz-44">
          <mxGeometry x="-0.6426" y="-2" relative="1" as="geometry">
            <mxPoint x="176" y="-14" as="offset" />
          </mxGeometry>
        </mxCell>
        <mxCell id="ge_QwHgeWHwvMYCNkkmz-46" style="edgeStyle=orthogonalEdgeStyle;rounded=0;orthogonalLoop=1;jettySize=auto;html=1;exitX=0.75;exitY=1;exitDx=0;exitDy=0;exitPerimeter=0;entryX=1;entryY=0.5;entryDx=0;entryDy=0;entryPerimeter=0;" edge="1" parent="1" source="ge_QwHgeWHwvMYCNkkmz-48" target="ge_QwHgeWHwvMYCNkkmz-17">
          <mxGeometry relative="1" as="geometry">
            <mxPoint x="81.84000000000003" y="904" as="targetPoint" />
            <Array as="points">
              <mxPoint x="-799" y="995" />
              <mxPoint x="-799" y="1100" />
              <mxPoint x="-282" y="1100" />
              <mxPoint x="-282" y="464" />
            </Array>
          </mxGeometry>
        </mxCell>
        <mxCell id="ge_QwHgeWHwvMYCNkkmz-47" value="SMTP/SMPP&lt;br&gt;Уведомления для Администратора" style="edgeLabel;html=1;align=center;verticalAlign=middle;resizable=0;points=[];" vertex="1" connectable="0" parent="ge_QwHgeWHwvMYCNkkmz-46">
          <mxGeometry x="-0.8819" y="-4" relative="1" as="geometry">
            <mxPoint x="94" y="19" as="offset" />
          </mxGeometry>
        </mxCell>
        <object placeholders="1" c4Name="Система отправки уведомлений" c4Type="Software System" c4Description="Рассылка уведомлений" label="&lt;font style=&quot;font-size: 16px&quot;&gt;&lt;b&gt;%c4Name%&lt;/b&gt;&lt;/font&gt;&lt;div&gt;[%c4Type%]&lt;/div&gt;&lt;br&gt;&lt;div&gt;&lt;font style=&quot;font-size: 11px&quot;&gt;&lt;font color=&quot;#cccccc&quot;&gt;%c4Description%&lt;/font&gt;&lt;/div&gt;" id="ge_QwHgeWHwvMYCNkkmz-48">
          <mxCell style="rounded=1;whiteSpace=wrap;html=1;labelBackgroundColor=none;fillColor=#8C8496;fontColor=#ffffff;align=center;arcSize=10;strokeColor=#736782;metaEdit=1;resizable=0;points=[[0.25,0,0],[0.5,0,0],[0.75,0,0],[1,0.25,0],[1,0.5,0],[1,0.75,0],[0.75,1,0],[0.5,1,0],[0.25,1,0],[0,0.75,0],[0,0.5,0],[0,0.25,0]];" vertex="1" parent="1">
            <mxGeometry x="-948.9999999999998" y="875" width="240" height="120" as="geometry" />
          </mxCell>
        </object>
        <object placeholders="1" c4Name="PsyMirror" c4Type="SystemScopeBoundary" c4Application="Software System" label="&lt;font style=&quot;font-size: 16px&quot;&gt;&lt;b&gt;&lt;div style=&quot;text-align: left&quot;&gt;%c4Name%&lt;/div&gt;&lt;/b&gt;&lt;/font&gt;&lt;div style=&quot;text-align: left&quot;&gt;[%c4Application%]&lt;/div&gt;" id="ge_QwHgeWHwvMYCNkkmz-79">
          <mxCell style="rounded=1;fontSize=11;whiteSpace=wrap;html=1;dashed=1;arcSize=20;fillColor=none;strokeColor=#666666;fontColor=#333333;labelBackgroundColor=none;align=left;verticalAlign=bottom;labelBorderColor=none;spacingTop=0;spacing=10;dashPattern=8 4;metaEdit=1;rotatable=0;perimeter=rectanglePerimeter;noLabel=0;labelPadding=0;allowArrows=0;connectable=0;expand=0;recursiveResize=0;editable=1;pointerEvents=0;absoluteArcSize=1;points=[[0.25,0,0],[0.5,0,0],[0.75,0,0],[1,0.25,0],[1,0.5,0],[1,0.75,0],[0.75,1,0],[0.5,1,0],[0.25,1,0],[0,0.75,0],[0,0.5,0],[0,0.25,0]];" vertex="1" parent="1">
            <mxGeometry x="-1441" y="370" width="760" height="380" as="geometry" />
          </mxCell>
        </object>
        <mxCell id="ge_QwHgeWHwvMYCNkkmz-82" style="edgeStyle=orthogonalEdgeStyle;rounded=0;orthogonalLoop=1;jettySize=auto;html=1;exitX=0.25;exitY=1;exitDx=0;exitDy=0;exitPerimeter=0;entryX=0.5;entryY=0;entryDx=0;entryDy=0;entryPerimeter=0;" edge="1" parent="1" source="ge_QwHgeWHwvMYCNkkmz-125" target="ge_QwHgeWHwvMYCNkkmz-43">
          <mxGeometry relative="1" as="geometry">
            <mxPoint x="-1305.9999999999998" y="775" as="sourcePoint" />
          </mxGeometry>
        </mxCell>
        <mxCell id="ge_QwHgeWHwvMYCNkkmz-83" value="Kafka Native Protocol (TCP)&lt;div&gt;Запрос на оплату&lt;/div&gt;" style="edgeLabel;html=1;align=center;verticalAlign=middle;resizable=0;points=[];" vertex="1" connectable="0" parent="ge_QwHgeWHwvMYCNkkmz-82">
          <mxGeometry x="0.1956" y="-3" relative="1" as="geometry">
            <mxPoint x="21" y="-14" as="offset" />
          </mxGeometry>
        </mxCell>
        <mxCell id="ge_QwHgeWHwvMYCNkkmz-84" style="edgeStyle=orthogonalEdgeStyle;rounded=0;orthogonalLoop=1;jettySize=auto;html=1;exitX=0.75;exitY=0;exitDx=0;exitDy=0;exitPerimeter=0;entryX=0.5;entryY=1;entryDx=0;entryDy=0;entryPerimeter=0;" edge="1" parent="1" source="ge_QwHgeWHwvMYCNkkmz-43" target="ge_QwHgeWHwvMYCNkkmz-125">
          <mxGeometry relative="1" as="geometry">
            <mxPoint x="-1185.9999999999998" y="775" as="targetPoint" />
            <Array as="points">
              <mxPoint x="-1186" y="850" />
              <mxPoint x="-1052" y="850" />
            </Array>
          </mxGeometry>
        </mxCell>
        <mxCell id="ge_QwHgeWHwvMYCNkkmz-85" value="Kafka Native Protocol (TCP)&lt;div&gt;Ответ по оплате&lt;/div&gt;" style="edgeLabel;html=1;align=center;verticalAlign=middle;resizable=0;points=[];" vertex="1" connectable="0" parent="ge_QwHgeWHwvMYCNkkmz-84">
          <mxGeometry x="-0.1939" y="-1" relative="1" as="geometry">
            <mxPoint x="-22" y="-21" as="offset" />
          </mxGeometry>
        </mxCell>
        <mxCell id="ge_QwHgeWHwvMYCNkkmz-86" style="edgeStyle=orthogonalEdgeStyle;rounded=0;orthogonalLoop=1;jettySize=auto;html=1;entryX=0.5;entryY=0;entryDx=0;entryDy=0;entryPerimeter=0;exitX=1;exitY=0.75;exitDx=0;exitDy=0;exitPerimeter=0;" edge="1" parent="1" source="ge_QwHgeWHwvMYCNkkmz-125" target="ge_QwHgeWHwvMYCNkkmz-48">
          <mxGeometry relative="1" as="geometry">
            <mxPoint x="-829" y="720" as="sourcePoint" />
          </mxGeometry>
        </mxCell>
        <mxCell id="ge_QwHgeWHwvMYCNkkmz-87" value="Kafka Native Protocol (TCP)&lt;div&gt;Отправка email&lt;/div&gt;" style="edgeLabel;html=1;align=center;verticalAlign=middle;resizable=0;points=[];" vertex="1" connectable="0" parent="ge_QwHgeWHwvMYCNkkmz-86">
          <mxGeometry x="-0.0085" y="-4" relative="1" as="geometry">
            <mxPoint x="6" y="64" as="offset" />
          </mxGeometry>
        </mxCell>
        <object placeholders="1" c4Name="Платформа конференц-связи" c4Type="Software System" c4Description="Проведение онлайн-консультаций" label="&lt;font style=&quot;font-size: 16px&quot;&gt;&lt;b&gt;%c4Name%&lt;/b&gt;&lt;/font&gt;&lt;div&gt;[%c4Type%]&lt;/div&gt;&lt;br&gt;&lt;div&gt;&lt;font style=&quot;font-size: 11px&quot;&gt;&lt;font color=&quot;#cccccc&quot;&gt;%c4Description%&lt;/font&gt;&lt;/div&gt;" id="ge_QwHgeWHwvMYCNkkmz-102">
          <mxCell style="rounded=1;whiteSpace=wrap;html=1;labelBackgroundColor=none;fillColor=#8C8496;fontColor=#ffffff;align=center;arcSize=10;strokeColor=#736782;metaEdit=1;resizable=0;points=[[0.25,0,0],[0.5,0,0],[0.75,0,0],[1,0.25,0],[1,0.5,0],[1,0.75,0],[0.75,1,0],[0.5,1,0],[0.25,1,0],[0,0.75,0],[0,0.5,0],[0,0.25,0]];" vertex="1" parent="1">
            <mxGeometry x="-1882" y="875" width="240" height="120" as="geometry" />
          </mxCell>
        </object>
        <object placeholders="1" c4Name="Сервис планирования событий" c4Type="Software System" c4Description="Запись на консультации" label="&lt;font style=&quot;font-size: 16px&quot;&gt;&lt;b&gt;%c4Name%&lt;/b&gt;&lt;/font&gt;&lt;div&gt;[%c4Type%]&lt;/div&gt;&lt;br&gt;&lt;div&gt;&lt;font style=&quot;font-size: 11px&quot;&gt;&lt;font color=&quot;#cccccc&quot;&gt;%c4Description%&lt;/font&gt;&lt;/div&gt;" id="ge_QwHgeWHwvMYCNkkmz-103">
          <mxCell style="rounded=1;whiteSpace=wrap;html=1;labelBackgroundColor=none;fillColor=#8C8496;fontColor=#ffffff;align=center;arcSize=10;strokeColor=#736782;metaEdit=1;resizable=0;points=[[0.25,0,0],[0.5,0,0],[0.75,0,0],[1,0.25,0],[1,0.5,0],[1,0.75,0],[0.75,1,0],[0.5,1,0],[0.25,1,0],[0,0.75,0],[0,0.5,0],[0,0.25,0]];" vertex="1" parent="1">
            <mxGeometry x="-1623" y="875" width="240" height="120" as="geometry" />
          </mxCell>
        </object>
        <object placeholders="1" c4Name="Kibana" c4Type="Container: UI/Monitoring Tool" c4Description="Логирование API" label="&lt;font style=&quot;font-size: 16px&quot;&gt;&lt;b&gt;%c4Name%&lt;/b&gt;&lt;/font&gt;&lt;div&gt;[%c4Type%]&lt;/div&gt;&lt;br&gt;&lt;div&gt;&lt;font style=&quot;font-size: 11px&quot;&gt;&lt;font color=&quot;#cccccc&quot;&gt;%c4Description%&lt;/font&gt;&lt;/div&gt;" id="ge_QwHgeWHwvMYCNkkmz-104">
          <mxCell style="rounded=1;whiteSpace=wrap;html=1;labelBackgroundColor=none;fillColor=#8C8496;fontColor=#ffffff;align=center;arcSize=10;strokeColor=#736782;metaEdit=1;resizable=0;points=[[0.25,0,0],[0.5,0,0],[0.75,0,0],[1,0.25,0],[1,0.5,0],[1,0.75,0],[0.75,1,0],[0.5,1,0],[0.25,1,0],[0,0.75,0],[0,0.5,0],[0,0.25,0]];" vertex="1" parent="1">
            <mxGeometry x="-680.9999999999998" y="875" width="240" height="120" as="geometry" />
          </mxCell>
        </object>
        <mxCell id="ge_QwHgeWHwvMYCNkkmz-120" style="edgeStyle=orthogonalEdgeStyle;rounded=0;orthogonalLoop=1;jettySize=auto;html=1;exitX=0.5;exitY=1;exitDx=0;exitDy=0;exitPerimeter=0;entryX=0.75;entryY=1;entryDx=0;entryDy=0;entryPerimeter=0;" edge="1" parent="1" source="ge_QwHgeWHwvMYCNkkmz-102" target="ge_QwHgeWHwvMYCNkkmz-125">
          <mxGeometry relative="1" as="geometry">
            <Array as="points">
              <mxPoint x="-1762" y="1016" />
              <mxPoint x="-992" y="1016" />
            </Array>
            <mxPoint x="-1002" y="780" as="targetPoint" />
          </mxGeometry>
        </mxCell>
        <mxCell id="ge_QwHgeWHwvMYCNkkmz-121" value="Kafka Native Protocol (TCP)&lt;div&gt;Ссылка на конференцию&lt;/div&gt;" style="edgeLabel;html=1;align=center;verticalAlign=middle;resizable=0;points=[];" vertex="1" connectable="0" parent="ge_QwHgeWHwvMYCNkkmz-120">
          <mxGeometry x="0.5246" y="1" relative="1" as="geometry">
            <mxPoint x="-27" y="5" as="offset" />
          </mxGeometry>
        </mxCell>
        <mxCell id="ge_QwHgeWHwvMYCNkkmz-122" style="edgeStyle=orthogonalEdgeStyle;rounded=0;orthogonalLoop=1;jettySize=auto;html=1;exitX=1;exitY=0.5;exitDx=0;exitDy=0;exitPerimeter=0;entryX=0.5;entryY=0;entryDx=0;entryDy=0;entryPerimeter=0;" edge="1" parent="1" source="ge_QwHgeWHwvMYCNkkmz-125" target="ge_QwHgeWHwvMYCNkkmz-104">
          <mxGeometry relative="1" as="geometry">
            <mxPoint x="-427.9999999999999" y="775" as="sourcePoint" />
            <mxPoint x="-402" y="850" as="targetPoint" />
          </mxGeometry>
        </mxCell>
        <mxCell id="ge_QwHgeWHwvMYCNkkmz-123" value="HTTPS&lt;div&gt;Логи&lt;/div&gt;" style="edgeLabel;html=1;align=center;verticalAlign=middle;resizable=0;points=[];" vertex="1" connectable="0" parent="ge_QwHgeWHwvMYCNkkmz-122">
          <mxGeometry x="-0.1514" y="1" relative="1" as="geometry">
            <mxPoint x="129" y="121" as="offset" />
          </mxGeometry>
        </mxCell>
        <object placeholders="1" c4Name="Backend" c4Type="Container" c4Technology="Server-side Application" c4Description="Обрабатывает бизнес-логику, содержит сервисы, БД и брокеры очередей" label="&lt;font style=&quot;font-size: 16px&quot;&gt;&lt;b&gt;%c4Name%&lt;/b&gt;&lt;/font&gt;&lt;div&gt;[%c4Type%: %c4Technology%]&lt;/div&gt;&lt;br&gt;&lt;div&gt;&lt;font style=&quot;font-size: 11px&quot;&gt;&lt;font color=&quot;#E6E6E6&quot;&gt;%c4Description%&lt;/font&gt;&lt;/div&gt;" id="ge_QwHgeWHwvMYCNkkmz-125">
          <mxCell style="rounded=1;whiteSpace=wrap;html=1;fontSize=11;labelBackgroundColor=none;fillColor=#23A2D9;fontColor=#ffffff;align=center;arcSize=10;strokeColor=#0E7DAD;metaEdit=1;resizable=0;points=[[0.25,0,0],[0.5,0,0],[0.75,0,0],[1,0.25,0],[1,0.5,0],[1,0.75,0],[0.75,1,0],[0.5,1,0],[0.25,1,0],[0,0.75,0],[0,0.5,0],[0,0.25,0]];" vertex="1" parent="1">
            <mxGeometry x="-1172.0800000000002" y="615" width="240" height="120" as="geometry" />
          </mxCell>
        </object>
        <mxCell id="ge_QwHgeWHwvMYCNkkmz-126" style="edgeStyle=orthogonalEdgeStyle;rounded=0;orthogonalLoop=1;jettySize=auto;html=1;exitX=0;exitY=0.75;exitDx=0;exitDy=0;exitPerimeter=0;entryX=0.5;entryY=0;entryDx=0;entryDy=0;entryPerimeter=0;" edge="1" parent="1" source="ge_QwHgeWHwvMYCNkkmz-125" target="ge_QwHgeWHwvMYCNkkmz-103">
          <mxGeometry relative="1" as="geometry">
            <Array as="points">
              <mxPoint x="-1503" y="705" />
            </Array>
            <mxPoint x="-1225" y="710" as="sourcePoint" />
            <mxPoint x="-1542" y="840" as="targetPoint" />
          </mxGeometry>
        </mxCell>
        <mxCell id="ge_QwHgeWHwvMYCNkkmz-127" value="JSON/HTTPS&lt;div&gt;Время работы и&lt;/div&gt;&lt;div&gt;запланированные консультации&lt;/div&gt;" style="edgeLabel;html=1;align=center;verticalAlign=middle;resizable=0;points=[];" vertex="1" connectable="0" parent="ge_QwHgeWHwvMYCNkkmz-126">
          <mxGeometry x="0.727" y="5" relative="1" as="geometry">
            <mxPoint x="-5" y="4" as="offset" />
          </mxGeometry>
        </mxCell>
        <mxCell id="ge_QwHgeWHwvMYCNkkmz-128" style="edgeStyle=orthogonalEdgeStyle;rounded=0;orthogonalLoop=1;jettySize=auto;html=1;exitX=0;exitY=0.5;exitDx=0;exitDy=0;exitPerimeter=0;entryX=0.5;entryY=0;entryDx=0;entryDy=0;entryPerimeter=0;" edge="1" parent="1" source="ge_QwHgeWHwvMYCNkkmz-125" target="ge_QwHgeWHwvMYCNkkmz-102">
          <mxGeometry relative="1" as="geometry">
            <Array as="points">
              <mxPoint x="-1762" y="675" />
            </Array>
            <mxPoint x="-1572" y="680" as="sourcePoint" />
            <mxPoint x="-1822" y="830" as="targetPoint" />
          </mxGeometry>
        </mxCell>
        <mxCell id="ge_QwHgeWHwvMYCNkkmz-129" value="JSON/HTTPS&lt;div&gt;Запрос на&lt;/div&gt;&lt;div&gt;создание конференции&lt;/div&gt;" style="edgeLabel;html=1;align=center;verticalAlign=middle;resizable=0;points=[];" vertex="1" connectable="0" parent="ge_QwHgeWHwvMYCNkkmz-128">
          <mxGeometry x="0.9209" y="-3" relative="1" as="geometry">
            <mxPoint y="-35" as="offset" />
          </mxGeometry>
        </mxCell>
        <mxCell id="ge_QwHgeWHwvMYCNkkmz-132" value="&lt;font style=&quot;font-size: 30px;&quot;&gt;&lt;b&gt;Context&lt;/b&gt;&lt;/font&gt;" style="text;html=1;align=center;verticalAlign=middle;whiteSpace=wrap;rounded=0;" vertex="1" parent="1">
          <mxGeometry x="-3822.16" y="48" width="62" height="30" as="geometry" />
        </mxCell>
        <object placeholders="1" c4Name="Пользователь" c4Type="Person" c4Description="Исследователь или Испытуемый" label="&lt;font style=&quot;font-size: 16px&quot;&gt;&lt;b&gt;%c4Name%&lt;/b&gt;&lt;/font&gt;&lt;div&gt;[%c4Type%]&lt;/div&gt;&lt;br&gt;&lt;div&gt;&lt;font style=&quot;font-size: 11px&quot;&gt;&lt;font color=&quot;#cccccc&quot;&gt;%c4Description%&lt;/font&gt;&lt;/div&gt;" id="ge_QwHgeWHwvMYCNkkmz-136">
          <mxCell style="html=1;fontSize=11;dashed=0;whiteSpace=wrap;fillColor=#083F75;strokeColor=#4D4D4D;fontColor=#ffffff;shape=mxgraph.c4.person2;align=center;metaEdit=1;points=[[0.5,0,0],[1,0.5,0],[1,0.75,0],[0.75,1,0],[0.5,1,0],[0.25,1,0],[0,0.75,0],[0,0.5,0]];resizable=0;" vertex="1" parent="1">
            <mxGeometry x="-3330.08" y="86" width="200" height="180" as="geometry" />
          </mxCell>
        </object>
        <mxCell id="ge_QwHgeWHwvMYCNkkmz-137" style="edgeStyle=orthogonalEdgeStyle;rounded=0;orthogonalLoop=1;jettySize=auto;html=1;entryX=0.75;entryY=0;entryDx=0;entryDy=0;entryPerimeter=0;exitX=0.5;exitY=1;exitDx=0;exitDy=0;exitPerimeter=0;" edge="1" parent="1" source="ge_QwHgeWHwvMYCNkkmz-139" target="ge_QwHgeWHwvMYCNkkmz-170">
          <mxGeometry relative="1" as="geometry">
            <mxPoint x="-2950.0800000000004" y="368.9999999999998" as="targetPoint" />
            <Array as="points">
              <mxPoint x="-2787" y="336" />
              <mxPoint x="-2950" y="336" />
            </Array>
          </mxGeometry>
        </mxCell>
        <mxCell id="ge_QwHgeWHwvMYCNkkmz-138" value="&lt;div&gt;Модерация контента,&lt;/div&gt;&lt;div&gt;управление доступом,&lt;/div&gt;&lt;div&gt;анализ статистики, помощь&lt;/div&gt;" style="edgeLabel;html=1;align=center;verticalAlign=middle;resizable=0;points=[];" vertex="1" connectable="0" parent="ge_QwHgeWHwvMYCNkkmz-137">
          <mxGeometry x="0.1633" y="6" relative="1" as="geometry">
            <mxPoint x="11" y="-29" as="offset" />
          </mxGeometry>
        </mxCell>
        <object placeholders="1" c4Name="Администратор" c4Type="Person" c4Description="Работник сервиса" label="&lt;font style=&quot;font-size: 16px&quot;&gt;&lt;b&gt;%c4Name%&lt;/b&gt;&lt;/font&gt;&lt;div&gt;[%c4Type%]&lt;/div&gt;&lt;br&gt;&lt;div&gt;&lt;font style=&quot;font-size: 11px&quot;&gt;&lt;font color=&quot;#cccccc&quot;&gt;%c4Description%&lt;/font&gt;&lt;/div&gt;" id="ge_QwHgeWHwvMYCNkkmz-139">
          <mxCell style="html=1;fontSize=11;dashed=0;whiteSpace=wrap;fillColor=#083F75;strokeColor=#06315C;fontColor=#ffffff;shape=mxgraph.c4.person2;align=center;metaEdit=1;points=[[0.5,0,0],[1,0.5,0],[1,0.75,0],[0.75,1,0],[0.5,1,0],[0.25,1,0],[0,0.75,0],[0,0.5,0]];resizable=0;" vertex="1" parent="1">
            <mxGeometry x="-2887" y="86" width="200" height="180" as="geometry" />
          </mxCell>
        </object>
        <mxCell id="ge_QwHgeWHwvMYCNkkmz-140" style="edgeStyle=orthogonalEdgeStyle;rounded=0;orthogonalLoop=1;jettySize=auto;html=1;entryX=0.222;entryY=0.026;entryDx=0;entryDy=0;entryPerimeter=0;exitX=0.5;exitY=1;exitDx=0;exitDy=0;exitPerimeter=0;" edge="1" parent="1" source="ge_QwHgeWHwvMYCNkkmz-136" target="ge_QwHgeWHwvMYCNkkmz-170">
          <mxGeometry relative="1" as="geometry">
            <mxPoint x="-3664" y="98" as="sourcePoint" />
            <mxPoint x="-3070.0800000000004" y="368.9999999999998" as="targetPoint" />
            <Array as="points">
              <mxPoint x="-3230" y="336" />
              <mxPoint x="-3070" y="336" />
              <mxPoint x="-3070" y="373" />
            </Array>
          </mxGeometry>
        </mxCell>
        <mxCell id="ge_QwHgeWHwvMYCNkkmz-141" value="&lt;div&gt;Создание и прохождение тестов,&lt;/div&gt;&lt;div&gt;проведение консультаций&lt;/div&gt;" style="edgeLabel;html=1;align=center;verticalAlign=middle;resizable=0;points=[];" vertex="1" connectable="0" parent="ge_QwHgeWHwvMYCNkkmz-140">
          <mxGeometry x="-0.2367" y="-4" relative="1" as="geometry">
            <mxPoint x="56" y="-19" as="offset" />
          </mxGeometry>
        </mxCell>
        <object placeholders="1" c4Name="Платёжная система" c4Type="Software System" c4Description="Проведение оплаты по картам или сервис ОПЛАТИ" label="&lt;font style=&quot;font-size: 16px&quot;&gt;&lt;b&gt;%c4Name%&lt;/b&gt;&lt;/font&gt;&lt;div&gt;[%c4Type%]&lt;/div&gt;&lt;br&gt;&lt;div&gt;&lt;font style=&quot;font-size: 11px&quot;&gt;&lt;font color=&quot;#cccccc&quot;&gt;%c4Description%&lt;/font&gt;&lt;/div&gt;" id="ge_QwHgeWHwvMYCNkkmz-145">
          <mxCell style="rounded=1;whiteSpace=wrap;html=1;labelBackgroundColor=none;fillColor=#8C8496;fontColor=#ffffff;align=center;arcSize=10;strokeColor=#736782;metaEdit=1;resizable=0;points=[[0.25,0,0],[0.5,0,0],[0.75,0,0],[1,0.25,0],[1,0.5,0],[1,0.75,0],[0.75,1,0],[0.5,1,0],[0.25,1,0],[0,0.75,0],[0,0.5,0],[0,0.25,0]];" vertex="1" parent="1">
            <mxGeometry x="-3324" y="629" width="240" height="120" as="geometry" />
          </mxCell>
        </object>
        <mxCell id="ge_QwHgeWHwvMYCNkkmz-146" style="edgeStyle=orthogonalEdgeStyle;rounded=0;orthogonalLoop=1;jettySize=auto;html=1;exitX=0.25;exitY=1;exitDx=0;exitDy=0;exitPerimeter=0;entryX=0;entryY=0.242;entryDx=0;entryDy=0;entryPerimeter=0;" edge="1" parent="1" source="ge_QwHgeWHwvMYCNkkmz-150" target="ge_QwHgeWHwvMYCNkkmz-170">
          <mxGeometry relative="1" as="geometry">
            <mxPoint x="-3130.0800000000004" y="398.9999999999998" as="targetPoint" />
            <Array as="points">
              <mxPoint x="-2877" y="749" />
              <mxPoint x="-2877" y="854" />
              <mxPoint x="-3870" y="854" />
              <mxPoint x="-3870" y="399" />
            </Array>
          </mxGeometry>
        </mxCell>
        <mxCell id="ge_QwHgeWHwvMYCNkkmz-147" value="SMTP/SMPP&lt;br&gt;Уведомления для Пользователей" style="edgeLabel;html=1;align=center;verticalAlign=middle;resizable=0;points=[];" vertex="1" connectable="0" parent="ge_QwHgeWHwvMYCNkkmz-146">
          <mxGeometry x="-0.6426" y="-2" relative="1" as="geometry">
            <mxPoint x="189" y="-16" as="offset" />
          </mxGeometry>
        </mxCell>
        <mxCell id="ge_QwHgeWHwvMYCNkkmz-148" style="edgeStyle=orthogonalEdgeStyle;rounded=0;orthogonalLoop=1;jettySize=auto;html=1;exitX=0.75;exitY=1;exitDx=0;exitDy=0;exitPerimeter=0;entryX=1;entryY=0.25;entryDx=0;entryDy=0;entryPerimeter=0;" edge="1" parent="1" source="ge_QwHgeWHwvMYCNkkmz-150" target="ge_QwHgeWHwvMYCNkkmz-170">
          <mxGeometry relative="1" as="geometry">
            <mxPoint x="-2890.0800000000004" y="398.9999999999998" as="targetPoint" />
            <Array as="points">
              <mxPoint x="-2757" y="749" />
              <mxPoint x="-2757" y="854" />
              <mxPoint x="-2240" y="854" />
              <mxPoint x="-2240" y="399" />
              <mxPoint x="-2890" y="399" />
            </Array>
          </mxGeometry>
        </mxCell>
        <mxCell id="ge_QwHgeWHwvMYCNkkmz-149" value="SMTP/SMPP&lt;br&gt;Уведомления для Администратора" style="edgeLabel;html=1;align=center;verticalAlign=middle;resizable=0;points=[];" vertex="1" connectable="0" parent="ge_QwHgeWHwvMYCNkkmz-148">
          <mxGeometry x="-0.8819" y="-4" relative="1" as="geometry">
            <mxPoint x="94" y="14" as="offset" />
          </mxGeometry>
        </mxCell>
        <object placeholders="1" c4Name="Система отправки уведомлений" c4Type="Software System" c4Description="Рассылка уведомлений" label="&lt;font style=&quot;font-size: 16px&quot;&gt;&lt;b&gt;%c4Name%&lt;/b&gt;&lt;/font&gt;&lt;div&gt;[%c4Type%]&lt;/div&gt;&lt;br&gt;&lt;div&gt;&lt;font style=&quot;font-size: 11px&quot;&gt;&lt;font color=&quot;#cccccc&quot;&gt;%c4Description%&lt;/font&gt;&lt;/div&gt;" id="ge_QwHgeWHwvMYCNkkmz-150">
          <mxCell style="rounded=1;whiteSpace=wrap;html=1;labelBackgroundColor=none;fillColor=#8C8496;fontColor=#ffffff;align=center;arcSize=10;strokeColor=#736782;metaEdit=1;resizable=0;points=[[0.25,0,0],[0.5,0,0],[0.75,0,0],[1,0.25,0],[1,0.5,0],[1,0.75,0],[0.75,1,0],[0.5,1,0],[0.25,1,0],[0,0.75,0],[0,0.5,0],[0,0.25,0]];" vertex="1" parent="1">
            <mxGeometry x="-2907" y="629" width="240" height="120" as="geometry" />
          </mxCell>
        </object>
        <mxCell id="ge_QwHgeWHwvMYCNkkmz-152" style="edgeStyle=orthogonalEdgeStyle;rounded=0;orthogonalLoop=1;jettySize=auto;html=1;exitX=0.25;exitY=1;exitDx=0;exitDy=0;exitPerimeter=0;entryX=0.5;entryY=0;entryDx=0;entryDy=0;entryPerimeter=0;" edge="1" parent="1" source="ge_QwHgeWHwvMYCNkkmz-170" target="ge_QwHgeWHwvMYCNkkmz-145">
          <mxGeometry relative="1" as="geometry">
            <mxPoint x="-3070.0800000000004" y="488.9999999999998" as="sourcePoint" />
          </mxGeometry>
        </mxCell>
        <mxCell id="ge_QwHgeWHwvMYCNkkmz-153" value="Kafka Native Protocol (TCP)&lt;div&gt;Запрос на оплату&lt;/div&gt;" style="edgeLabel;html=1;align=center;verticalAlign=middle;resizable=0;points=[];" vertex="1" connectable="0" parent="ge_QwHgeWHwvMYCNkkmz-152">
          <mxGeometry x="0.1956" y="-3" relative="1" as="geometry">
            <mxPoint x="21" y="-14" as="offset" />
          </mxGeometry>
        </mxCell>
        <mxCell id="ge_QwHgeWHwvMYCNkkmz-154" style="edgeStyle=orthogonalEdgeStyle;rounded=0;orthogonalLoop=1;jettySize=auto;html=1;exitX=0.75;exitY=0;exitDx=0;exitDy=0;exitPerimeter=0;entryX=0.5;entryY=1;entryDx=0;entryDy=0;entryPerimeter=0;" edge="1" parent="1" source="ge_QwHgeWHwvMYCNkkmz-145" target="ge_QwHgeWHwvMYCNkkmz-170">
          <mxGeometry relative="1" as="geometry">
            <mxPoint x="-3010.0800000000004" y="488.9999999999998" as="targetPoint" />
            <Array as="points">
              <mxPoint x="-3144" y="604" />
              <mxPoint x="-3010" y="604" />
            </Array>
          </mxGeometry>
        </mxCell>
        <mxCell id="ge_QwHgeWHwvMYCNkkmz-155" value="Kafka Native Protocol (TCP)&lt;div&gt;Ответ по оплате&lt;/div&gt;" style="edgeLabel;html=1;align=center;verticalAlign=middle;resizable=0;points=[];" vertex="1" connectable="0" parent="ge_QwHgeWHwvMYCNkkmz-154">
          <mxGeometry x="-0.1939" y="-1" relative="1" as="geometry">
            <mxPoint x="-22" y="-21" as="offset" />
          </mxGeometry>
        </mxCell>
        <mxCell id="ge_QwHgeWHwvMYCNkkmz-156" style="edgeStyle=orthogonalEdgeStyle;rounded=0;orthogonalLoop=1;jettySize=auto;html=1;entryX=0.5;entryY=0;entryDx=0;entryDy=0;entryPerimeter=0;exitX=1;exitY=0.75;exitDx=0;exitDy=0;exitPerimeter=0;" edge="1" parent="1" source="ge_QwHgeWHwvMYCNkkmz-170" target="ge_QwHgeWHwvMYCNkkmz-150">
          <mxGeometry relative="1" as="geometry">
            <mxPoint x="-2890.0800000000004" y="458.9999999999998" as="sourcePoint" />
            <Array as="points">
              <mxPoint x="-2787" y="459" />
            </Array>
          </mxGeometry>
        </mxCell>
        <mxCell id="ge_QwHgeWHwvMYCNkkmz-157" value="Kafka Native Protocol (TCP)&lt;div&gt;Отправка email&lt;/div&gt;" style="edgeLabel;html=1;align=center;verticalAlign=middle;resizable=0;points=[];" vertex="1" connectable="0" parent="ge_QwHgeWHwvMYCNkkmz-156">
          <mxGeometry x="-0.0085" y="-4" relative="1" as="geometry">
            <mxPoint x="6" y="57" as="offset" />
          </mxGeometry>
        </mxCell>
        <object placeholders="1" c4Name="Платформа конференц-связи" c4Type="Software System" c4Description="Проведение онлайн-консультаций" label="&lt;font style=&quot;font-size: 16px&quot;&gt;&lt;b&gt;%c4Name%&lt;/b&gt;&lt;/font&gt;&lt;div&gt;[%c4Type%]&lt;/div&gt;&lt;br&gt;&lt;div&gt;&lt;font style=&quot;font-size: 11px&quot;&gt;&lt;font color=&quot;#cccccc&quot;&gt;%c4Description%&lt;/font&gt;&lt;/div&gt;" id="ge_QwHgeWHwvMYCNkkmz-158">
          <mxCell style="rounded=1;whiteSpace=wrap;html=1;labelBackgroundColor=none;fillColor=#8C8496;fontColor=#ffffff;align=center;arcSize=10;strokeColor=#736782;metaEdit=1;resizable=0;points=[[0.25,0,0],[0.5,0,0],[0.75,0,0],[1,0.25,0],[1,0.5,0],[1,0.75,0],[0.75,1,0],[0.5,1,0],[0.25,1,0],[0,0.75,0],[0,0.5,0],[0,0.25,0]];" vertex="1" parent="1">
            <mxGeometry x="-3840" y="629" width="240" height="120" as="geometry" />
          </mxCell>
        </object>
        <object placeholders="1" c4Name="Сервис планирования событий" c4Type="Software System" c4Description="Запись на консультации" label="&lt;font style=&quot;font-size: 16px&quot;&gt;&lt;b&gt;%c4Name%&lt;/b&gt;&lt;/font&gt;&lt;div&gt;[%c4Type%]&lt;/div&gt;&lt;br&gt;&lt;div&gt;&lt;font style=&quot;font-size: 11px&quot;&gt;&lt;font color=&quot;#cccccc&quot;&gt;%c4Description%&lt;/font&gt;&lt;/div&gt;" id="ge_QwHgeWHwvMYCNkkmz-159">
          <mxCell style="rounded=1;whiteSpace=wrap;html=1;labelBackgroundColor=none;fillColor=#8C8496;fontColor=#ffffff;align=center;arcSize=10;strokeColor=#736782;metaEdit=1;resizable=0;points=[[0.25,0,0],[0.5,0,0],[0.75,0,0],[1,0.25,0],[1,0.5,0],[1,0.75,0],[0.75,1,0],[0.5,1,0],[0.25,1,0],[0,0.75,0],[0,0.5,0],[0,0.25,0]];" vertex="1" parent="1">
            <mxGeometry x="-3581" y="629" width="240" height="120" as="geometry" />
          </mxCell>
        </object>
        <object placeholders="1" c4Name="Kibana" c4Type="Container: UI/Monitoring Tool" c4Description="Логирование API" label="&lt;font style=&quot;font-size: 16px&quot;&gt;&lt;b&gt;%c4Name%&lt;/b&gt;&lt;/font&gt;&lt;div&gt;[%c4Type%]&lt;/div&gt;&lt;br&gt;&lt;div&gt;&lt;font style=&quot;font-size: 11px&quot;&gt;&lt;font color=&quot;#cccccc&quot;&gt;%c4Description%&lt;/font&gt;&lt;/div&gt;" id="ge_QwHgeWHwvMYCNkkmz-160">
          <mxCell style="rounded=1;whiteSpace=wrap;html=1;labelBackgroundColor=none;fillColor=#8C8496;fontColor=#ffffff;align=center;arcSize=10;strokeColor=#736782;metaEdit=1;resizable=0;points=[[0.25,0,0],[0.5,0,0],[0.75,0,0],[1,0.25,0],[1,0.5,0],[1,0.75,0],[0.75,1,0],[0.5,1,0],[0.25,1,0],[0,0.75,0],[0,0.5,0],[0,0.25,0]];" vertex="1" parent="1">
            <mxGeometry x="-2639" y="629" width="240" height="120" as="geometry" />
          </mxCell>
        </object>
        <mxCell id="ge_QwHgeWHwvMYCNkkmz-161" style="edgeStyle=orthogonalEdgeStyle;rounded=0;orthogonalLoop=1;jettySize=auto;html=1;exitX=0.5;exitY=1;exitDx=0;exitDy=0;exitPerimeter=0;entryX=0.75;entryY=1;entryDx=0;entryDy=0;entryPerimeter=0;" edge="1" parent="1" source="ge_QwHgeWHwvMYCNkkmz-158" target="ge_QwHgeWHwvMYCNkkmz-170">
          <mxGeometry relative="1" as="geometry">
            <Array as="points">
              <mxPoint x="-3720" y="770" />
              <mxPoint x="-2950" y="770" />
            </Array>
            <mxPoint x="-2950.0800000000004" y="488.9999999999998" as="targetPoint" />
          </mxGeometry>
        </mxCell>
        <mxCell id="ge_QwHgeWHwvMYCNkkmz-162" value="Kafka Native Protocol (TCP)&lt;div&gt;Ссылка на конференцию&lt;/div&gt;" style="edgeLabel;html=1;align=center;verticalAlign=middle;resizable=0;points=[];" vertex="1" connectable="0" parent="ge_QwHgeWHwvMYCNkkmz-161">
          <mxGeometry x="0.5246" y="1" relative="1" as="geometry">
            <mxPoint x="-39" y="5" as="offset" />
          </mxGeometry>
        </mxCell>
        <mxCell id="ge_QwHgeWHwvMYCNkkmz-163" style="edgeStyle=orthogonalEdgeStyle;rounded=0;orthogonalLoop=1;jettySize=auto;html=1;exitX=1;exitY=0.5;exitDx=0;exitDy=0;exitPerimeter=0;entryX=0.5;entryY=0;entryDx=0;entryDy=0;entryPerimeter=0;" edge="1" parent="1" source="ge_QwHgeWHwvMYCNkkmz-170" target="ge_QwHgeWHwvMYCNkkmz-160">
          <mxGeometry relative="1" as="geometry">
            <mxPoint x="-2890.0800000000004" y="428.9999999999998" as="sourcePoint" />
            <mxPoint x="-2360" y="604" as="targetPoint" />
          </mxGeometry>
        </mxCell>
        <mxCell id="ge_QwHgeWHwvMYCNkkmz-164" value="HTTPS&lt;div&gt;Логи&lt;/div&gt;" style="edgeLabel;html=1;align=center;verticalAlign=middle;resizable=0;points=[];" vertex="1" connectable="0" parent="ge_QwHgeWHwvMYCNkkmz-163">
          <mxGeometry x="-0.1514" y="1" relative="1" as="geometry">
            <mxPoint x="129" y="120" as="offset" />
          </mxGeometry>
        </mxCell>
        <mxCell id="ge_QwHgeWHwvMYCNkkmz-166" style="edgeStyle=orthogonalEdgeStyle;rounded=0;orthogonalLoop=1;jettySize=auto;html=1;exitX=0;exitY=0.75;exitDx=0;exitDy=0;exitPerimeter=0;entryX=0.5;entryY=0;entryDx=0;entryDy=0;entryPerimeter=0;" edge="1" parent="1" source="ge_QwHgeWHwvMYCNkkmz-170" target="ge_QwHgeWHwvMYCNkkmz-159">
          <mxGeometry relative="1" as="geometry">
            <Array as="points">
              <mxPoint x="-3461" y="459" />
            </Array>
            <mxPoint x="-3130.0800000000004" y="458.9999999999998" as="sourcePoint" />
            <mxPoint x="-3500" y="594" as="targetPoint" />
          </mxGeometry>
        </mxCell>
        <mxCell id="ge_QwHgeWHwvMYCNkkmz-167" value="JSON/HTTPS&lt;div&gt;Время работы и&lt;/div&gt;&lt;div&gt;запланированные консультации&lt;/div&gt;" style="edgeLabel;html=1;align=center;verticalAlign=middle;resizable=0;points=[];" vertex="1" connectable="0" parent="ge_QwHgeWHwvMYCNkkmz-166">
          <mxGeometry x="0.727" y="5" relative="1" as="geometry">
            <mxPoint x="-5" y="-5" as="offset" />
          </mxGeometry>
        </mxCell>
        <mxCell id="ge_QwHgeWHwvMYCNkkmz-168" style="edgeStyle=orthogonalEdgeStyle;rounded=0;orthogonalLoop=1;jettySize=auto;html=1;entryX=0.5;entryY=0;entryDx=0;entryDy=0;entryPerimeter=0;exitX=0;exitY=0.5;exitDx=0;exitDy=0;exitPerimeter=0;" edge="1" parent="1" source="ge_QwHgeWHwvMYCNkkmz-170" target="ge_QwHgeWHwvMYCNkkmz-158">
          <mxGeometry relative="1" as="geometry">
            <Array as="points">
              <mxPoint x="-3200" y="429" />
              <mxPoint x="-3720" y="429" />
            </Array>
            <mxPoint x="-3160" y="416" as="sourcePoint" />
            <mxPoint x="-3780" y="584" as="targetPoint" />
          </mxGeometry>
        </mxCell>
        <mxCell id="ge_QwHgeWHwvMYCNkkmz-169" value="JSON/HTTPS&lt;div&gt;Запрос на&lt;/div&gt;&lt;div&gt;создание конференции&lt;/div&gt;" style="edgeLabel;html=1;align=center;verticalAlign=middle;resizable=0;points=[];" vertex="1" connectable="0" parent="ge_QwHgeWHwvMYCNkkmz-168">
          <mxGeometry x="0.9209" y="-3" relative="1" as="geometry">
            <mxPoint y="-44" as="offset" />
          </mxGeometry>
        </mxCell>
        <object placeholders="1" c4Name="PsyMirror" c4Type="Software System" c4Description="Веб-сервис для прохождения тестов и получения психологической помощи" label="&lt;font style=&quot;font-size: 16px&quot;&gt;&lt;b&gt;%c4Name%&lt;/b&gt;&lt;/font&gt;&lt;div&gt;[%c4Type%]&lt;/div&gt;&lt;br&gt;&lt;div&gt;&lt;font style=&quot;font-size: 11px&quot;&gt;&lt;font color=&quot;#cccccc&quot;&gt;%c4Description%&lt;/font&gt;&lt;/div&gt;" id="ge_QwHgeWHwvMYCNkkmz-170">
          <mxCell style="rounded=1;whiteSpace=wrap;html=1;labelBackgroundColor=none;fillColor=#1061B0;fontColor=#ffffff;align=center;arcSize=10;strokeColor=#0D5091;metaEdit=1;resizable=0;points=[[0.25,0,0],[0.5,0,0],[0.75,0,0],[1,0.25,0],[1,0.5,0],[1,0.75,0],[0.75,1,0],[0.5,1,0],[0.25,1,0],[0,0.75,0],[0,0.5,0],[0,0.25,0]];" vertex="1" parent="1">
            <mxGeometry x="-3130" y="370" width="240" height="120" as="geometry" />
          </mxCell>
        </object>
      </root>
    </mxGraphModel>
  </diagram>
</mxfile>
